<?xml version="1.0" encoding="UTF-8"?>
<svg width="90px" height="89px" viewBox="0 0 90 89" version="1.1" xmlns="http://www.w3.org/2000/svg" xmlns:xlink="http://www.w3.org/1999/xlink">
    <!-- Generator: Sketch 51.3 (57544) - http://www.bohemiancoding.com/sketch -->
    <title>net</title>
    <desc>Created with Sketch.</desc>
    <defs></defs>
    <g id="Page-1" stroke="none" stroke-width="1" fill="none" fill-rule="evenodd">
        <g id="website-layout-02" transform="translate(-707.000000, -1775.000000)" fill-rule="nonzero">
            <g id="about" transform="translate(-1.000000, 812.000000)">
                <g id="langus" transform="translate(194.500000, 962.000000)">
                    <g id="net" transform="translate(514.140625, 1.000000)">
                        <circle id="Oval-7" fill="#FFFFFF" cx="44.5" cy="44.5" r="44.5"></circle>
                        <circle id="Oval" fill="#5C2D91" cx="45" cy="44" r="32"></circle>
                        <path d="M22.82,21 C13.9565299,28.8983271 10.1942502,41.0545681 13.0465456,52.5788505 C15.898841,64.1031329 24.8968671,73.101159 36.4211495,75.9534544 C47.9454319,78.8057498 60.1016729,75.0434701 68,66.18 L22.82,21 Z" id="Shape" fill="#FFFFFF" opacity="0.1"></path>
                        <path d="M20.4,53.25 C20.0226105,53.2559468 19.6599648,53.1036356 19.4,52.83 C19.1330588,52.5662733 18.985024,52.2052128 18.99,51.83 C18.9873056,51.4552247 19.1349908,51.0950169 19.4,50.83 C19.6574796,50.551635 20.020841,50.3953896 20.4,50.4 C20.7784144,50.3990742 21.1403584,50.5547101 21.4,50.83 C21.6696398,51.0927054 21.8211925,51.453545 21.82,51.83 C21.8235287,52.206918 21.6716061,52.5686385 21.4,52.83 C21.1379602,53.1006152 20.7766855,53.2523506 20.4,53.25 Z" id="Shape" fill="#FFFFFF"></path>
                        <path d="M40.27,53 L37.65,53 L28.28,38.46 C28.0469931,38.1015242 27.8525771,37.7193962 27.7,37.32 L27.62,37.32 C27.7090773,38.1501686 27.7424853,38.9853689 27.72,39.82 L27.72,53 L25.59,53 L25.59,34.77 L28.36,34.77 L37.48,49.05 C37.86,49.6433333 38.1066667,50.05 38.22,50.27 L38.27,50.27 C38.1645146,49.3807669 38.1210762,48.4852679 38.14,47.59 L38.14,34.77 L40.27,34.77 L40.27,53 Z" id="Shape" fill="#FFFFFF"></path>
                        <polygon id="Shape" fill="#FFFFFF" points="54.69 53 45 53 45 34.77 54.24 34.77 54.24 36.7 47.18 36.7 47.18 42.76 53.76 42.76 53.76 44.68 47.18 44.68 47.18 51 54.7 51"></polygon>
                        <polygon id="Shape" fill="#FFFFFF" points="69 36.7 63.7 36.7 63.7 53 61.57 53 61.57 36.7 56.33 36.7 56.33 34.77 69 34.77"></polygon>
                    </g>
                </g>
            </g>
        </g>
    </g>
</svg>