<?xml version="1.0" encoding="UTF-8"?>
<svg width="295px" height="149px" viewBox="0 0 295 149" version="1.1" xmlns="http://www.w3.org/2000/svg" xmlns:xlink="http://www.w3.org/1999/xlink">
    <!-- Generator: Sketch 51.3 (57544) - http://www.bohemiancoding.com/sketch -->
    <title>illustration 02</title>
    <desc>Created with Sketch.</desc>
    <defs>
        <rect id="path-1" x="22.8398438" y="0.38671875" width="272" height="140" rx="2"></rect>
        <filter x="-2.4%" y="-4.6%" width="104.8%" height="109.3%" filterUnits="objectBoundingBox" id="filter-2">
            <feGaussianBlur stdDeviation="5" in="SourceAlpha" result="shadowBlurInner1"></feGaussianBlur>
            <feOffset dx="0" dy="3" in="shadowBlurInner1" result="shadowOffsetInner1"></feOffset>
            <feComposite in="shadowOffsetInner1" in2="SourceAlpha" operator="arithmetic" k2="-1" k3="1" result="shadowInnerInner1"></feComposite>
            <feColorMatrix values="0 0 0 0 0   0 0 0 0 0   0 0 0 0 0  0 0 0 0.5 0" type="matrix" in="shadowInnerInner1"></feColorMatrix>
        </filter>
        <linearGradient x1="50%" y1="0%" x2="50%" y2="100%" id="linearGradient-3">
            <stop stop-color="#D4DEED" offset="0%"></stop>
            <stop stop-color="#E0E9F6" offset="100%"></stop>
        </linearGradient>
        <rect id="path-4" x="0" y="0.5" width="259" height="127.5" rx="2"></rect>
        <rect id="path-6" x="8.19665404" y="0.62109375" width="51.4747475" height="89" rx="8"></rect>
    </defs>
    <g id="Page-1" stroke="none" stroke-width="1" fill="none" fill-rule="evenodd">
        <g id="illustration-02">
            <g id="Rectangle-15" fill-rule="nonzero">
                <use fill="#D4DEED" xlink:href="#path-1"></use>
                <use fill="black" fill-opacity="1" filter="url(#filter-2)" xlink:href="#path-1"></use>
                <rect stroke="#2681D6" stroke-width="6" stroke-linejoin="square" x="25.8398438" y="3.38671875" width="266" height="134" rx="2"></rect>
            </g>
            <rect id="Rectangle-16" fill="url(#linearGradient-3)" fill-rule="nonzero" x="48" y="131.474609" width="57" height="12.5253906"></rect>
            <g id="Group-4" transform="translate(30.000000, 6.000000)">
                <mask id="mask-5" fill="white">
                    <use xlink:href="#path-4"></use>
                </mask>
                <g id="Rectangle-17" fill-rule="nonzero"></g>
                <path d="M175.339844,-12.8984445 C172.787749,-12.8984445 170.591156,-11.9869885 168.750002,-10.1640625 C166.908848,-8.3411435 165.988278,-6.1536645 165.988278,-3.6015625 C165.988278,-1.0130115 166.908848,1.1926955 168.750002,3.0156215 C170.591156,4.8385475 172.787749,5.7499965 175.339844,5.7499965 C177.891939,5.7499965 180.088532,4.8385475 181.929686,3.0156215 C183.77084,1.1926955 184.69141,-1.0130115 184.69141,-3.6015625 C184.69141,-6.1536645 183.77084,-8.3411435 181.929686,-10.1640625 C180.088532,-11.9869885 177.891939,-12.8984445 175.339844,-12.8984445 Z M175.339844,1.1015555 C174.063793,1.1015555 172.970057,0.6458345 172.058594,-0.2656285 C171.147131,-1.1770915 170.69141,-2.2890625 170.69141,-3.6015625 C170.69141,-4.8776135 171.147131,-5.9713565 172.058594,-6.8828125 C172.970057,-7.7942755 174.063793,-8.2500035 175.339844,-8.2500035 C176.615895,-8.2500035 177.709631,-7.7942755 178.621094,-6.8828125 C179.532557,-5.9713565 179.988278,-4.8776135 179.988278,-3.6015625 C179.988278,-2.2890625 179.532557,-1.1770915 178.621094,-0.2656285 C177.709631,0.6458345 176.615895,1.1015555 175.339844,1.1015555 Z M194.699219,4.3281215 C194.808594,4.1093715 194.990881,3.8997355 195.246094,3.6992135 C195.501307,3.4986915 195.865881,3.3984375 196.339844,3.3984375 C198.308601,3.3984375 199.96744,2.7330735 201.31641,1.4023385 C202.665373,0.0716035 203.339844,-1.5963495 203.339844,-3.6015625 C203.339844,-5.5703265 202.665373,-7.2291655 201.31641,-8.5781285 C199.96744,-9.9270915 198.308601,-10.6015625 196.339844,-10.6015625 L195.84766,-10.6015625 C195.628903,-10.6015625 195.41016,-10.6562535 195.19141,-10.7656285 C194.972653,-10.8750035 194.808594,-11.0390625 194.699219,-11.2578125 L194.480469,-11.7500035 C194.371094,-11.9687535 194.334638,-12.2513015 194.371094,-12.5976615 C194.40755,-12.9440145 194.589844,-13.2812535 194.917969,-13.6093785 C196.230476,-14.8854295 196.941403,-16.3710885 197.050778,-18.0664115 C197.16016,-19.7617275 196.686204,-21.3203055 195.62891,-22.7421945 L195.62891,-23.3984445 L194.699219,-23.8906285 C194.115881,-24.4739665 193.423182,-24.9296875 192.621094,-25.2578125 C191.819006,-25.5859445 190.962241,-25.7500035 190.050778,-25.7500035 C190.050778,-25.7500035 190.050778,-25.7500035 190.050778,-25.7500035 C189.102859,-25.7500035 188.182296,-25.5768305 187.289061,-25.2304705 C186.395826,-24.8841175 185.602866,-24.3645915 184.91016,-23.6718785 C184.691403,-23.4166655 184.417969,-23.2799485 184.089844,-23.2617205 C183.761719,-23.2434925 183.488285,-23.2890625 183.269528,-23.3984445 C183.050778,-23.2890625 182.841149,-23.3710955 182.640627,-23.6445365 C182.440105,-23.9179705 182.339844,-24.2369815 182.339844,-24.6015625 C182.339844,-26.5703265 181.665373,-28.2291655 180.31641,-29.5781285 C178.96744,-30.9270915 177.308601,-31.6015625 175.339844,-31.6015625 C173.371087,-31.6015625 171.712248,-30.9270915 170.363278,-29.5781285 C169.014315,-28.2291655 168.339844,-26.5703265 168.339844,-24.6015625 L168.339844,-24.1093785 C168.339844,-23.8906285 168.28516,-23.6718785 168.175778,-23.4531285 C168.066403,-23.2343785 167.884116,-23.0703195 167.62891,-22.9609445 L167.19141,-22.7421945 C166.936197,-22.5963565 166.644535,-22.5781285 166.31641,-22.6875035 C165.988278,-22.7968785 165.66016,-22.9609375 165.332028,-23.1796945 C163.910146,-24.5651135 162.2422,-25.2578125 160.328127,-25.2578125 C158.414054,-25.2578125 156.800785,-24.5651135 155.488278,-23.1796945 C154.102857,-21.7942685 153.419271,-20.1263155 153.4375,-18.1757865 C153.455729,-16.2252575 154.230461,-14.5573045 155.761719,-13.1718785 C155.980469,-12.9166655 156.098958,-12.6250035 156.117186,-12.2968785 C156.135414,-11.9687535 156.089844,-11.6224005 155.980469,-11.2578125 C155.871094,-11.0390625 155.661458,-10.8294335 155.351561,-10.6289115 C155.041664,-10.4283895 154.704432,-10.3281285 154.339844,-10.3281285 C152.371084,-10.3281285 150.712246,-9.6627715 149.363281,-8.3320365 C148.014316,-7.0013015 147.339844,-5.3333485 147.339844,-3.3281285 C147.339844,-1.3593715 148.014316,0.2994675 149.363281,1.6484375 C150.712246,2.9974005 152.371084,3.6718715 154.339844,3.6718715 L154.832028,3.6718715 C155.16016,3.6718715 155.442708,3.7630185 155.679686,3.9453055 C155.916671,4.1275995 156.089844,4.3463495 156.199219,4.6015555 C156.308594,4.8203125 156.34505,5.0937465 156.308594,5.4218715 C156.272138,5.7499965 156.089844,6.0963495 155.761719,6.4609375 C155.03255,7.1536435 154.494796,7.9101475 154.148437,8.7304635 C153.802081,9.5507795 153.628906,10.4166585 153.628906,11.3281215 C153.628906,12.1666655 153.792967,12.9869745 154.121094,13.7890555 C154.449219,14.5911435 154.904947,15.3385335 155.488278,16.0312465 L155.761719,16.2499965 C155.761719,16.2499965 155.761719,16.2499965 155.761719,16.2499965 L156.417969,16.9609375 C157.839851,18.0182308 159.407543,18.48307 161.121094,18.3554649 C162.834645,18.2278605 164.384109,17.5260475 165.769528,16.2499965 C165.988285,16.0312465 166.270833,15.9127575 166.617186,15.8945295 C166.963546,15.8763015 167.300778,15.9218715 167.62891,16.0312465 C167.993491,16.1406215 168.239583,16.3229085 168.367186,16.5781215 C168.494796,16.8333345 168.558594,17.1979085 168.558594,17.6718715 C168.558594,19.6406313 169.233065,21.2994689 170.582028,22.648434 C171.930998,23.9973991 173.589837,24.6718715 175.558594,24.6718715 C177.563814,24.6718715 179.231767,23.9973991 180.562502,22.648434 C181.893237,21.2994689 182.558594,19.6406313 182.558594,17.6718715 L182.558594,17.1796875 C182.558594,16.8150995 182.658855,16.5234375 182.859377,16.3046875 C183.059899,16.0859305 183.269528,15.9036435 183.488278,15.7578055 C183.743491,15.6484305 184.035153,15.6119745 184.363278,15.6484375 C184.69141,15.6848935 185.019528,15.8854085 185.34766,16.2499965 C186.769542,17.6354225 188.437488,18.3281215 190.351561,18.3281215 C192.265634,18.3281215 193.878903,17.6354225 195.19141,16.2499965 C196.576829,14.8645705 197.260414,13.1966175 197.242186,11.2460885 C197.223958,9.2955595 196.449226,7.6276065 194.917969,6.2421875 C194.808594,5.8775995 194.717447,5.5312465 194.644528,5.2031215 C194.571616,4.8749965 194.589844,4.5833345 194.699219,4.3281215 Z M191.91016,9.4687465 C192.12891,9.7239595 192.302083,9.9791585 192.429686,10.2343715 C192.557296,10.4895845 192.621094,10.7812465 192.621094,11.1093715 C192.621094,11.4739595 192.557296,11.7838495 192.429686,12.0390555 C192.302083,12.2942685 192.12891,12.5312465 191.91016,12.7499965 C191.691403,12.9687465 191.454432,13.1419195 191.199219,13.2695295 C190.944006,13.3971325 190.634116,13.4609375 190.269528,13.4609375 C190.269528,13.4609375 190.269528,13.4609375 190.269528,13.4609375 C189.904947,13.4609375 189.595057,13.3880185 189.339844,13.2421875 C189.084631,13.0963495 188.774741,12.8593715 188.41016,12.5312465 C187.462234,11.5833275 186.386726,10.9999965 185.183594,10.7812465 C183.980462,10.5624965 182.795579,10.7447835 181.62891,11.3281215 C180.462234,11.8020845 179.550785,12.5677025 178.894528,13.6249965 C178.238278,14.6822905 177.91016,15.7942615 177.91016,16.9609375 L177.91016,17.3984375 C177.91016,18.1276044 177.69141,18.7018172 177.25391,19.1210899 C176.816403,19.5403633 176.251307,19.7499965 175.558594,19.7499965 C174.865881,19.7499965 174.309899,19.5403633 173.890627,19.1210899 C173.471355,18.7018172 173.261719,18.1276044 173.261719,17.3984375 L173.261719,17.1796875 C173.261719,15.9036365 172.888024,14.7643235 172.140627,13.7617135 C171.393223,12.7591035 170.436204,12.0390625 169.269528,11.6015555 C168.904947,11.3463495 168.50391,11.2005185 168.06641,11.1640555 C167.628903,11.1275995 167.173182,11.1093715 166.699219,11.1093715 C165.897131,11.1093715 165.104171,11.2734305 164.320311,11.6015555 C163.536458,11.9296875 162.852866,12.3854085 162.269528,12.9687465 C161.795572,13.4427095 161.28516,13.6888015 160.738278,13.7070295 C160.191403,13.7252575 159.699219,13.5703125 159.261719,13.2421875 L158.769528,12.2578055 L158.550778,12.2578055 C158.441403,12.1484305 158.377605,12.0025995 158.359377,11.8203055 C158.341149,11.6380185 158.332028,11.4739525 158.332028,11.3281215 C158.332028,10.9999965 158.395833,10.6992135 158.523436,10.4257795 C158.651046,10.1523385 158.897131,9.8333345 159.261719,9.4687465 C160.173182,8.5572835 160.738278,7.5000035 160.957028,6.2968715 C161.175785,5.0937395 160.993491,3.9088565 160.41016,2.7421875 C159.936197,1.5755115 159.179693,0.6549485 158.140627,-0.0195365 C157.101561,-0.6940145 155.998704,-1.0312535 154.832028,-1.0312535 L154.339844,-1.0312535 C153.647132,-1.0312535 153.082033,-1.2408895 152.644531,-1.6601615 C152.207029,-2.0794335 151.988281,-2.6354155 151.988281,-3.3281285 C151.988281,-4.0572975 152.207029,-4.6315145 152.644531,-5.0507865 C153.082033,-5.4700585 153.647132,-5.6796945 154.339844,-5.6796945 L154.558594,-5.6796945 C155.834645,-5.6796945 156.973951,-6.0533825 157.976561,-6.8007865 C158.979171,-7.5481835 159.717447,-8.5052095 160.19141,-9.6718785 C160.62891,-10.8385475 160.738285,-12.0325515 160.519528,-13.2539115 C160.300778,-14.4752715 159.717454,-15.6145845 158.769528,-16.6718785 C158.295572,-17.1093785 158.058594,-17.6471325 158.058594,-18.2851615 C158.058594,-18.9231835 158.295572,-19.4609375 158.769528,-19.8984445 C159.243491,-20.3724005 159.799473,-20.6002645 160.437502,-20.5820365 C161.075524,-20.5638085 161.686197,-20.2630255 162.269528,-19.6796945 C163.071616,-18.8776065 164.055984,-18.3580805 165.22266,-18.1210955 C166.389329,-17.8841175 167.5013,-17.9296875 168.558594,-18.2578125 L169.269528,-18.5312535 C170.436204,-19.0052165 171.347653,-19.7617205 172.00391,-20.8007865 C172.66016,-21.8398525 172.988278,-22.9427095 172.988278,-24.1093785 L172.988278,-24.6015625 C172.988278,-25.2942755 173.207028,-25.8502645 173.644528,-26.2695365 C174.082035,-26.6888085 174.647131,-26.8984445 175.339844,-26.8984445 C176.032557,-26.8984445 176.597653,-26.6796945 177.03516,-26.2421945 C177.47266,-25.8046875 177.69141,-25.1666725 177.69141,-24.3281285 C177.69141,-23.0520775 178.019528,-21.9218855 178.675778,-20.9375035 C179.332035,-19.9531215 180.243484,-19.2239665 181.41016,-18.7500035 C182.576829,-18.2760405 183.770826,-18.1575515 184.992186,-18.3945365 C186.213546,-18.6315145 187.352859,-19.2239595 188.41016,-20.1718785 C188.62891,-20.3906285 188.865881,-20.5546875 189.121094,-20.6640625 C189.376307,-20.7734445 189.686197,-20.8281285 190.050778,-20.8281285 C190.37891,-20.8281285 190.670572,-20.7734445 190.925778,-20.6640625 C191.180991,-20.5546875 191.436197,-20.3906285 191.69141,-20.1718785 C192.12891,-19.6979155 192.338539,-19.1419335 192.320311,-18.5039115 C192.302083,-17.8658825 192.001307,-17.2552165 191.417969,-16.6718785 C190.615881,-15.8333345 190.096355,-14.8307385 189.859377,-13.6640625 C189.622392,-12.4973935 189.686197,-11.3854225 190.050778,-10.3281285 L190.269528,-9.6718785 C190.743491,-8.5052095 191.499995,-7.5846395 192.539061,-6.9101615 C193.578127,-6.2356765 194.680984,-5.8984445 195.84766,-5.8984445 L196.339844,-5.8984445 C197.032557,-5.8984445 197.597653,-5.6888085 198.03516,-5.2695365 C198.47266,-4.8502645 198.69141,-4.2942755 198.69141,-3.6015625 C198.69141,-2.8723935 198.463546,-2.2981835 198.007811,-1.8789115 C197.552083,-1.4596395 196.923182,-1.2500035 196.121094,-1.2500035 C194.845043,-1.2500035 193.705737,-0.9218785 192.703127,-0.2656285 C191.700517,0.3906215 190.962241,1.3020775 190.488278,2.4687465 C189.904947,3.6354155 189.759116,4.8294195 190.050778,6.0507795 C190.342447,7.2721395 190.962234,8.4114525 191.91016,9.4687465 Z" id="Fill-1" fill="#FFFFFF" mask="url(#mask-5)"></path>
                <g id="Group-6" mask="url(#mask-5)" fill-rule="nonzero">
                    <g transform="translate(222.500000, -23.000000) rotate(-360.000000) translate(-222.500000, 23.000000) translate(130.000000, -115.000000)">
                        <circle id="Oval" stroke="none" fill="#53C5F0" cx="3.47167969" cy="181.121094" r="2.5"></circle>
                        <path d="M7.34765625,177.197266 L184.291992,0.252929688" id="Path-18" stroke="#53C5F0" stroke-width="2" fill="none" stroke-dasharray="4"></path>
                    </g>
                </g>
                <g id="Group-5" mask="url(#mask-5)" fill-rule="nonzero" stroke="#53C5F0" stroke-width="3">
                    <g transform="translate(190.484375, 146.500000) scale(-1, 1) translate(-190.484375, -146.500000) translate(94.984375, 38.000000)">
                        <path d="M0.0280398251,3.97230856 L149.289155,3.97230856 C174.568615,4.441716 187.208345,17.081446 187.208345,41.8914987 C187.208345,66.7015513 187.208345,124.860303 187.208345,216.367753" id="Path-16" fill="none"></path>
                        <circle id="Oval" fill="#FFFFFF" cx="149.631864" cy="4.08446786" r="3.58909761"></circle>
                        <circle id="Oval" fill="#FFFFFF" cx="187.117995" cy="39.1778667" r="3.58909761"></circle>
                    </g>
                </g>
                <g id="app-block" mask="url(#mask-5)">
                    <g transform="translate(145.203125, 12.621094)">
                        <g id="Group-7" stroke="none" stroke-width="1" fill="none" fill-rule="evenodd" transform="translate(30.796875, 129.378906) scale(-1, 1) translate(-30.796875, -129.378906) translate(0.796875, 80.378906)">
                            <rect id="Rectangle-3" fill="#53DBF0" fill-rule="nonzero" style="mix-blend-mode: multiply;" opacity="0.75" x="0.15625" y="8.62109375" width="51.4747475" height="89" rx="2"></rect>
                            <text id="YAML" transform="translate(26.347656, 23.386719) scale(-1, 1) translate(-26.347656, -23.386719) " font-family="SpaceMono-Regular, Space Mono" font-size="16" font-weight="normal" fill="#FFFFFF">
                                <tspan x="6.34765625" y="29.3867187">YAML</tspan>
                            </text>
                            <g id="Rectangle-3" fill-rule="nonzero">
                                <use fill="#FFFFFF" style="mix-blend-mode: multiply;" xlink:href="#path-6"></use>
                                <rect stroke="#3995EE" stroke-width="4" stroke-linejoin="square" x="10.196654" y="2.62109375" width="47.4747475" height="85" rx="8"></rect>
                            </g>
                        </g>
                        <rect id="Rectangle-9" stroke="none" fill="#D0C6E6" fill-rule="nonzero" x="42.2623677" y="5.07744377" width="59.9311051" height="59.9311051" rx="8"></rect>
                        <rect id="Rectangle-9" stroke="#3995EE" stroke-width="3" fill="none" fill-rule="nonzero" x="38.7478768" y="1.56295284" width="56.9311051" height="56.9311051" rx="12"></rect>
                        <path d="M44.2587577,7.07383374 L90.168101,52.983177" id="Path-14" stroke="#0B0C6D" stroke-width="3" fill="none" stroke-linecap="round" fill-rule="nonzero"></path>
                        <path d="M44.2587577,7.07383374 L90.168101,52.983177" id="Path-14" stroke="#0B0C6D" stroke-width="3" fill="none" stroke-linecap="round" fill-rule="nonzero" transform="translate(67.213429, 30.028505) scale(-1, 1) translate(-67.213429, -30.028505) "></path>
                        <circle id="Oval-4" stroke="#0B0C6D" stroke-width="3" fill="#D0C6E6" fill-rule="nonzero" cx="67.2134294" cy="30.0285054" r="20.9112116"></circle>
                        <path d="M67.4634294,25.517049 L67.4634294,34.5399618" id="Path-15" stroke="#3995EE" stroke-width="3" fill="none" stroke-linecap="round" fill-rule="nonzero"></path>
                        <path d="M62.7271541,29.9277808 L71.7500669,29.9277808" id="Path-15" stroke="#3995EE" stroke-width="3" fill="none" stroke-linecap="round" fill-rule="nonzero"></path>
                    </g>
                </g>
                <g id="app-block" mask="url(#mask-5)" fill-rule="nonzero" stroke-width="3">
                    <g transform="translate(76.203125, 88.871094)">
                        <rect id="Rectangle-9" stroke="#A0C7EC" fill="#FFFFFF" x="1.66431228" y="1.5417301" width="44.727058" height="44.727058" rx="12"></rect>
                        <path d="M8.81167652,8.68909434 L39.2440063,39.1214242" id="Path-14" stroke="#A0C7EC" fill="none" stroke-linecap="round"></path>
                        <path d="M8.81167652,8.68909434 L39.2440063,39.1214242" id="Path-14" stroke="#A0C7EC" fill="none" stroke-linecap="round" transform="translate(24.027841, 23.905259) scale(-1, 1) translate(-24.027841, -23.905259) "></path>
                        <circle id="Oval-4" stroke="#A0C7EC" fill="#FFFFFF" cx="24.0278414" cy="23.9052593" r="13.3559168"></circle>
                        <path d="M24.2778414,20.9147105 L24.2778414,26.895808" id="Path-15" stroke="#3995EE" fill="none" opacity="0.313839286" stroke-linecap="round"></path>
                        <path d="M21.0539847,23.8384911 L27.0350822,23.8384911" id="Path-15" stroke="#3995EE" fill="none" opacity="0.313839286" stroke-linecap="round"></path>
                    </g>
                </g>
                <g id="code" mask="url(#mask-5)" fill-rule="nonzero" stroke="#D0C6E6" stroke-linecap="round" stroke-width="10">
                    <g transform="translate(-112.347656, 15.621094)" id="Path-17">
                        <path d="M0.696407204,2.53912814 L144.190262,2.53912814"></path>
                        <path d="M0.696407204,24.2806214 L144.190262,24.2806214"></path>
                        <path d="M0.696407204,78.6343544 L144.190262,78.6343544"></path>
                    </g>
                </g>
            </g>
            <circle id="Oval-5" stroke="#2681D6" stroke-width="6" fill="#FFFFFF" fill-rule="nonzero" cx="105.652344" cy="137" r="9"></circle>
            <circle id="Oval-5" stroke="#2681D6" stroke-width="6" fill="#FFFFFF" fill-rule="nonzero" cx="48.6523438" cy="137" r="9"></circle>
            <rect id="Rectangle-7" stroke="#60A2E0" fill="#FFFFFF" fill-rule="nonzero" x="1.15234375" y="61.8867187" width="82" height="24"></rect>
            <path d="M14.6006875,77.216 L9.8006875,77.216 L8.9846875,80 L7.5446875,80 L10.9366875,68.8 L13.4646875,68.8 L16.8566875,80 L15.4166875,80 L14.6006875,77.216 Z M12.1046875,69.376 L10.1686875,75.968 L14.2326875,75.968 L12.2966875,69.376 L12.1046875,69.376 Z M19.8006875,75.392 L19.8006875,80 L18.4566875,80 L18.4566875,68.8 L22.4566875,68.8 C23.0326904,68.8 23.5340187,68.8826658 23.9606875,69.048 C24.3873563,69.2133342 24.7420194,69.4346653 25.0246875,69.712 C25.3073556,69.9893347 25.5206868,70.3119982 25.6646875,70.68 C25.8086882,71.0480018 25.8806875,71.4346646 25.8806875,71.84 L25.8806875,72.32 C25.8806875,72.7253354 25.8086882,73.1146648 25.6646875,73.488 C25.5206868,73.8613352 25.3046889,74.1893319 25.0166875,74.472 C24.7286861,74.7546681 24.3713563,74.9786658 23.9446875,75.144 C23.5180187,75.3093342 23.0220237,75.392 22.4566875,75.392 L19.8006875,75.392 Z M19.8006875,74.144 L22.2966875,74.144 C23.7900283,74.144 24.5366875,73.5040064 24.5366875,72.224 L24.5366875,71.936 C24.5366875,71.3706638 24.3526893,70.9146684 23.9846875,70.568 C23.6166857,70.2213316 23.0540246,70.048 22.2966875,70.048 L19.8006875,70.048 L19.8006875,74.144 Z M29.5926875,75.392 L29.5926875,80 L28.2486875,80 L28.2486875,68.8 L32.2486875,68.8 C32.8246904,68.8 33.3260187,68.8826658 33.7526875,69.048 C34.1793563,69.2133342 34.5340194,69.4346653 34.8166875,69.712 C35.0993556,69.9893347 35.3126868,70.3119982 35.4566875,70.68 C35.6006882,71.0480018 35.6726875,71.4346646 35.6726875,71.84 L35.6726875,72.32 C35.6726875,72.7253354 35.6006882,73.1146648 35.4566875,73.488 C35.3126868,73.8613352 35.0966889,74.1893319 34.8086875,74.472 C34.5206861,74.7546681 34.1633563,74.9786658 33.7366875,75.144 C33.3100187,75.3093342 32.8140237,75.392 32.2486875,75.392 L29.5926875,75.392 Z M29.5926875,74.144 L32.0886875,74.144 C33.5820283,74.144 34.3286875,73.5040064 34.3286875,72.224 L34.3286875,71.936 C34.3286875,71.3706638 34.1446893,70.9146684 33.7766875,70.568 C33.4086857,70.2213316 32.8460246,70.048 32.0886875,70.048 L29.5926875,70.048 L29.5926875,74.144 Z M47.4326875,73.152 C47.4326875,71.7013261 47.7793507,70.576004 48.4726875,69.776 C49.1660243,68.975996 50.131348,68.576 51.3686875,68.576 C52.606027,68.576 53.5713507,68.975996 54.2646875,69.776 C54.9580243,70.576004 55.3046875,71.7013261 55.3046875,73.152 L55.3046875,75.648 C55.3046875,77.1413408 54.9580243,78.2773294 54.2646875,79.056 C53.5713507,79.8346706 52.606027,80.224 51.3686875,80.224 C50.131348,80.224 49.1660243,79.8346706 48.4726875,79.056 C47.7793507,78.2773294 47.4326875,77.1413408 47.4326875,75.648 L47.4326875,73.152 Z M51.3686875,78.976 C52.2326918,78.976 52.8806853,78.680003 53.3126875,78.088 C53.7446897,77.495997 53.9606875,76.6506722 53.9606875,75.552 L53.9606875,73.248 C53.9606875,72.2239949 53.7446897,71.3973365 53.3126875,70.768 C52.8806853,70.1386635 52.2326918,69.824 51.3686875,69.824 C50.5046832,69.824 49.8566897,70.1386635 49.4246875,70.768 C48.9926853,71.3973365 48.7766875,72.2239949 48.7766875,73.248 L48.7766875,75.552 C48.7766875,76.6506722 48.9926853,77.495997 49.4246875,78.088 C49.8566897,78.680003 50.5046832,78.976 51.3686875,78.976 Z M58.9686875,75.392 L58.9686875,80 L57.6246875,80 L57.6246875,68.8 L61.6246875,68.8 C62.2006904,68.8 62.7020187,68.8826658 63.1286875,69.048 C63.5553563,69.2133342 63.9100194,69.4346653 64.1926875,69.712 C64.4753556,69.9893347 64.6886868,70.3119982 64.8326875,70.68 C64.9766882,71.0480018 65.0486875,71.4346646 65.0486875,71.84 L65.0486875,72.32 C65.0486875,72.7253354 64.9766882,73.1146648 64.8326875,73.488 C64.6886868,73.8613352 64.4726889,74.1893319 64.1846875,74.472 C63.8966861,74.7546681 63.5393563,74.9786658 63.1126875,75.144 C62.6860187,75.3093342 62.1900237,75.392 61.6246875,75.392 L58.9686875,75.392 Z M58.9686875,74.144 L61.4646875,74.144 C62.9580283,74.144 63.7046875,73.5040064 63.7046875,72.224 L63.7046875,71.936 C63.7046875,71.3706638 63.5206893,70.9146684 63.1526875,70.568 C62.7846857,70.2213316 62.2220246,70.048 61.4646875,70.048 L58.9686875,70.048 L58.9686875,74.144 Z M73.5926875,72.032 C73.5926875,71.6693315 73.5206882,71.3493347 73.3766875,71.072 C73.2326868,70.7946653 73.0380221,70.5653342 72.7926875,70.384 C72.5473529,70.2026658 72.2646891,70.0640005 71.9446875,69.968 C71.6246859,69.8719995 71.2886893,69.824 70.9366875,69.824 C70.6273526,69.824 70.3340222,69.8639996 70.0566875,69.944 C69.7793528,70.0240004 69.5313553,70.1386659 69.3126875,70.288 C69.0940197,70.4373341 68.9206881,70.6213322 68.7926875,70.84 C68.6646869,71.0586678 68.6006875,71.3119986 68.6006875,71.6 L68.6006875,71.696 C68.6006875,72.0053349 68.6646869,72.2693322 68.7926875,72.488 C68.9206881,72.7066678 69.1100196,72.8933326 69.3606875,73.048 C69.6113554,73.2026674 69.9233523,73.3306662 70.2966875,73.432 C70.6700227,73.5333338 71.1073517,73.621333 71.6086875,73.696 C72.7820267,73.8773342 73.6460181,74.2213308 74.2006875,74.728 C74.7553569,75.2346692 75.0326875,75.9146624 75.0326875,76.768 L75.0326875,76.96 C75.0326875,77.4400024 74.9500217,77.879998 74.7846875,78.28 C74.6193533,78.680002 74.3740225,79.0239986 74.0486875,79.312 C73.7233525,79.6000014 73.3206899,79.8239992 72.8406875,79.984 C72.3606851,80.1440008 71.806024,80.224 71.1766875,80.224 C70.4620173,80.224 69.8300236,80.120001 69.2806875,79.912 C68.7313514,79.703999 68.2726893,79.4160018 67.9046875,79.048 C67.5366857,78.6799982 67.2566885,78.2480025 67.0646875,77.752 C66.8726865,77.2559975 66.7766875,76.7146696 66.7766875,76.128 L66.7766875,75.648 L68.1206875,75.648 L68.1206875,76.032 C68.1206875,77.0133382 68.3900181,77.7493309 68.9286875,78.24 C69.4673569,78.7306691 70.2166827,78.976 71.1766875,78.976 C72.0086917,78.976 72.6353521,78.7920018 73.0566875,78.424 C73.4780229,78.0559982 73.6886875,77.568003 73.6886875,76.96 L73.6886875,76.864 C73.6886875,76.2773304 73.4726897,75.8293349 73.0406875,75.52 C72.6086853,75.2106651 71.907359,74.9866674 70.9366875,74.848 C70.3713513,74.773333 69.8620231,74.6586674 69.4086875,74.504 C68.9553519,74.3493326 68.5686891,74.1466679 68.2486875,73.896 C67.9286859,73.6453321 67.683355,73.3440018 67.5126875,72.992 C67.34202,72.6399982 67.2566875,72.2240024 67.2566875,71.744 L67.2566875,71.552 C67.2566875,71.1146645 67.3473533,70.7146685 67.5286875,70.352 C67.7100217,69.9893315 67.9633525,69.674668 68.2886875,69.408 C68.6140225,69.141332 69.0033519,68.9360007 69.4566875,68.792 C69.9100231,68.6479993 70.4086848,68.576 70.9526875,68.576 C71.582024,68.576 72.144685,68.6666658 72.6406875,68.848 C73.13669,69.0293342 73.5553525,69.2719985 73.8966875,69.576 C74.2380225,69.8800015 74.4966866,70.2373313 74.6726875,70.648 C74.8486884,71.0586687 74.9366875,71.4879978 74.9366875,71.936 L74.9366875,72.608 L73.5926875,72.608 L73.5926875,72.032 Z" id="APP-OPS" fill="#60A2E0"></path>
        </g>
    </g>
</svg>