<?xml version="1.0" encoding="UTF-8"?>
<svg width="220px" height="131px" viewBox="0 0 220 131" version="1.1" xmlns="http://www.w3.org/2000/svg" xmlns:xlink="http://www.w3.org/1999/xlink">
    <!-- Generator: Sketch 51.3 (57544) - http://www.bohemiancoding.com/sketch -->
    <title>logo</title>
    <desc>Created with Sketch.</desc>
    <defs></defs>
    <g id="Page-1" stroke="none" stroke-width="1" fill="none" fill-rule="evenodd">
        <g id="Brand-1:-ohm-bound" transform="translate(-35.000000, -17.000000)">
            <g id="logo" transform="translate(35.000000, 17.000000)">
                <rect id="Rectangle-3" stroke="#2681D6" stroke-width="6" fill-rule="nonzero" x="3" y="3" width="214" height="125.003906"></rect>
                <path d="M29.1089375,18.22 C31.2622816,18.22 33.1379295,18.684662 34.7359375,19.614 C36.3339455,20.543338 37.5635999,21.8806579 38.4249375,23.626 C39.2862751,25.3713421 39.7169375,27.4226549 39.7169375,29.78 C39.7169375,32.1373451 39.2862751,34.1886579 38.4249375,35.934 C37.5635999,37.6793421 36.3339455,39.016662 34.7359375,39.946 C33.1379295,40.875338 31.2622816,41.34 29.1089375,41.34 C26.9555934,41.34 25.0856121,40.875338 23.4989375,39.946 C21.9122629,39.016662 20.6882751,37.6793421 19.8269375,35.934 C18.9655999,34.1886579 18.5349375,32.1373451 18.5349375,29.78 C18.5349375,27.4226549 18.9655999,25.3713421 19.8269375,23.626 C20.6882751,21.8806579 21.9122629,20.543338 23.4989375,19.614 C25.0856121,18.684662 26.9555934,18.22 29.1089375,18.22 Z M29.1089375,21.382 C27.000927,21.382 25.3462768,22.1186593 24.1449375,23.592 C22.9435982,25.0653407 22.3429375,27.1279867 22.3429375,29.78 C22.3429375,32.4320133 22.9435982,34.4946593 24.1449375,35.968 C25.3462768,37.4413407 27.000927,38.178 29.1089375,38.178 C31.2396148,38.178 32.9055982,37.4413407 34.1069375,35.968 C35.3082768,34.4946593 35.9089375,32.4320133 35.9089375,29.78 C35.9089375,27.1279867 35.3082768,25.0653407 34.1069375,23.592 C32.9055982,22.1186593 31.2396148,21.382 29.1089375,21.382 Z M53.5662708,23.66 C55.9009492,23.66 57.7369308,24.4363256 59.0742708,25.989 C60.4116109,27.5416744 61.0802708,29.7006528 61.0802708,32.466 C61.0802708,35.2313472 60.4116109,37.4016588 59.0742708,38.977 C57.7369308,40.5523412 55.9009492,41.34 53.5662708,41.34 C52.3422647,41.34 51.248609,41.0680027 50.2852708,40.524 C49.3219327,39.9799973 48.5796068,39.2320048 48.0582708,38.28 L48.0582708,48.14 L44.4202708,48.14 L44.4202708,24 L47.6162708,24 L47.7862708,27.162 C48.28494,26.0966613 49.0385991,25.2466698 50.0472708,24.612 C51.0559425,23.9773302 52.2289308,23.66 53.5662708,23.66 Z M52.7502708,38.382 C54.2236115,38.382 55.3739334,37.8663385 56.2012708,36.835 C57.0286083,35.8036615 57.4422708,34.358676 57.4422708,32.5 C57.4422708,30.641324 57.0286083,29.1906719 56.2012708,28.148 C55.3739334,27.1053281 54.2236115,26.584 52.7502708,26.584 C51.3675973,26.584 50.2626083,27.048662 49.4352708,27.978 C48.6079334,28.907338 48.148938,30.1993251 48.0582708,31.854 L48.0582708,33.146 C48.148938,34.7780082 48.6079334,36.058662 49.4352708,36.988 C50.2626083,37.917338 51.3675973,38.382 52.7502708,38.382 Z M80.9476042,31.99 C80.9476042,32.6473366 80.9022713,33.2706637 80.8116042,33.86 L68.3676042,33.86 C68.5716052,35.3560075 69.1042665,36.4949961 69.9656042,37.277 C70.8269418,38.0590039 71.9375974,38.45 73.2976042,38.45 C74.4082764,38.45 75.3319338,38.2516687 76.0686042,37.855 C76.8052745,37.4583314 77.3096028,36.8860037 77.5816042,36.138 L80.6076042,37.396 C79.3382645,40.0253465 76.9016222,41.34 73.2976042,41.34 C70.6229241,41.34 68.5319451,40.5580078 67.0246042,38.994 C65.5172633,37.4299922 64.7636042,35.2653472 64.7636042,32.5 C64.7636042,29.7119861 65.4889303,27.5416744 66.9396042,25.989 C68.3902781,24.4363256 70.4302577,23.66 73.0596042,23.66 C75.55295,23.66 77.4909306,24.4193257 78.8736042,25.938 C80.2562778,27.4566743 80.9476042,29.4739874 80.9476042,31.99 Z M73.0596042,26.55 C71.7449309,26.55 70.6852749,26.9353295 69.8806042,27.706 C69.0759335,28.4766705 68.5716052,29.5986593 68.3676042,31.072 L77.5476042,31.072 C77.3662699,29.6439929 76.8846081,28.5333373 76.1026042,27.74 C75.3206003,26.9466627 74.3062771,26.55 73.0596042,26.55 Z M94.5929375,23.66 C96.4742803,23.66 98.0099316,24.2039946 99.1999375,25.292 C100.389943,26.3800054 100.984938,27.9439898 100.984938,29.984 L100.984938,41 L97.3469375,41 L97.3469375,31.14 C97.3469375,28.147985 96.134283,26.652 93.7089375,26.652 C92.4395978,26.652 91.3516087,27.088329 90.4449375,27.961 C89.5382663,28.833671 89.0849375,30.1766576 89.0849375,31.99 L89.0849375,41 L85.4469375,41 L85.4469375,24 L88.6769375,24 L88.8469375,26.822 C89.413607,25.7566613 90.1955992,24.9633359 91.1929375,24.442 C92.1902758,23.9206641 93.3235978,23.66 94.5929375,23.66 Z M32.4749375,71.118 L23.0229375,71.118 L20.8809375,77 L17.1409375,77 L25.6069375,54.56 L29.9589375,54.56 L38.4249375,77 L34.5829375,77 L32.4749375,71.118 Z M31.3869375,68.16 L28.8029375,60.952 L27.7829375,57.722 L27.6809375,57.722 L26.7289375,60.884 L24.0769375,68.16 L31.3869375,68.16 Z M50.9822708,59.66 C53.3169492,59.66 55.1529308,60.4363256 56.4902708,61.989 C57.8276109,63.5416744 58.4962708,65.7006528 58.4962708,68.466 C58.4962708,71.2313472 57.8276109,73.4016588 56.4902708,74.977 C55.1529308,76.5523412 53.3169492,77.34 50.9822708,77.34 C49.7582647,77.34 48.664609,77.0680027 47.7012708,76.524 C46.7379327,75.9799973 45.9956068,75.2320048 45.4742708,74.28 L45.4742708,84.14 L41.8362708,84.14 L41.8362708,60 L45.0322708,60 L45.2022708,63.162 C45.70094,62.0966613 46.4545991,61.2466698 47.4632708,60.612 C48.4719426,59.9773302 49.6449308,59.66 50.9822708,59.66 Z M50.1662708,74.382 C51.6396115,74.382 52.7899334,73.8663385 53.6172708,72.835 C54.4446083,71.8036615 54.8582708,70.358676 54.8582708,68.5 C54.8582708,66.641324 54.4446083,65.1906719 53.6172708,64.148 C52.7899334,63.1053281 51.6396115,62.584 50.1662708,62.584 C48.7835973,62.584 47.6786083,63.048662 46.8512708,63.978 C46.0239334,64.907338 45.564938,66.1993251 45.4742708,67.854 L45.4742708,69.146 C45.564938,70.7780082 46.0239334,72.058662 46.8512708,72.988 C47.6786083,73.917338 48.7835973,74.382 50.1662708,74.382 Z M72.3116042,59.66 C74.6462825,59.66 76.4822642,60.4363256 77.8196042,61.989 C79.1569442,63.5416744 79.8256042,65.7006528 79.8256042,68.466 C79.8256042,71.2313472 79.1569442,73.4016588 77.8196042,74.977 C76.4822642,76.5523412 74.6462825,77.34 72.3116042,77.34 C71.0875981,77.34 69.9939423,77.0680027 69.0306042,76.524 C68.067266,75.9799973 67.3249401,75.2320048 66.8036042,74.28 L66.8036042,84.14 L63.1656042,84.14 L63.1656042,60 L66.3616042,60 L66.5316042,63.162 C67.0302733,62.0966613 67.7839325,61.2466698 68.7926042,60.612 C69.8012759,59.9773302 70.9742642,59.66 72.3116042,59.66 Z M71.4956042,74.382 C72.9689449,74.382 74.1192667,73.8663385 74.9466042,72.835 C75.7739416,71.8036615 76.1876042,70.358676 76.1876042,68.5 C76.1876042,66.641324 75.7739416,65.1906719 74.9466042,64.148 C74.1192667,63.1053281 72.9689449,62.584 71.4956042,62.584 C70.1129306,62.584 69.0079417,63.048662 68.1806042,63.978 C67.3532667,64.907338 66.8942713,66.1993251 66.8036042,67.854 L66.8036042,69.146 C66.8942713,70.7780082 67.3532667,72.058662 68.1806042,72.988 C69.0079417,73.917338 70.1129306,74.382 71.4956042,74.382 Z M88.0309375,72.036 C88.0309375,72.8746709 88.1556029,73.4583317 88.4049375,73.787 C88.6542721,74.1156683 89.1189341,74.28 89.7989375,74.28 C90.2296063,74.28 90.597936,74.251667 90.9039375,74.195 C91.2099391,74.1383331 91.5896019,74.0193342 92.0429375,73.838 L91.6349375,76.762 C90.864267,77.1473353 89.9236097,77.34 88.8129375,77.34 C87.2942633,77.34 86.1779411,76.9546705 85.4639375,76.184 C84.749934,75.4133295 84.3929375,74.2006749 84.3929375,72.546 L84.3929375,52.35 L88.0309375,52.35 L88.0309375,72.036 Z M96.8822709,57.144 C96.1116003,57.144 95.5109397,56.9456687 95.0802709,56.549 C94.649602,56.1523314 94.4342709,55.591337 94.4342709,54.866 C94.4342709,54.140663 94.649602,53.5853353 95.0802709,53.2 C95.5109397,52.8146647 96.1116003,52.622 96.8822709,52.622 C97.6529414,52.622 98.2479354,52.8146647 98.6672709,53.2 C99.0866063,53.5853353 99.2962709,54.140663 99.2962709,54.866 C99.2962709,55.591337 99.0866063,56.1523314 98.6672709,56.549 C98.2479354,56.9456687 97.6529414,57.144 96.8822709,57.144 Z M98.6842709,77 L95.0462709,77 L95.0462709,60 L98.6842709,60 L98.6842709,77 Z M111.785604,59.66 C115.502956,59.66 117.962265,61.2466508 119.163604,64.42 L115.763604,65.78 C115.174268,63.6266559 113.848281,62.55 111.785604,62.55 C110.26693,62.55 109.088275,63.0713281 108.249604,64.114 C107.410933,65.1566719 106.991604,66.6299905 106.991604,68.534 C106.991604,70.4380095 107.410933,71.8999949 108.249604,72.92 C109.088275,73.9400051 110.26693,74.45 111.785604,74.45 C112.94161,74.45 113.870934,74.1666695 114.573604,73.6 C115.276274,73.0333305 115.740936,72.2173387 115.967604,71.152 L119.299604,72.274 C118.800935,73.8606746 117.916944,75.1016622 116.647604,75.997 C115.378265,76.8923378 113.780281,77.34 111.853604,77.34 C109.178924,77.34 107.087945,76.5580078 105.580604,74.994 C104.073263,73.4299922 103.319604,71.2653472 103.319604,68.5 C103.319604,65.7346528 104.067597,63.5700078 105.563604,62.006 C107.059612,60.4419922 109.133591,59.66 111.785604,59.66 Z M138.180938,74.62 C138.679607,74.62 139.098936,74.5746671 139.438938,74.484 L139.200938,76.932 C138.588934,77.2040014 137.886275,77.34 137.092938,77.34 C136.118266,77.34 135.34194,77.1473353 134.763938,76.762 C134.185935,76.3766647 133.806272,75.7306712 133.624938,74.824 C133.103602,75.6173373 132.332943,76.2349978 131.312938,76.677 C130.292932,77.1190022 129.148277,77.34 127.878938,77.34 C126.224263,77.34 124.886943,76.9546705 123.866938,76.184 C122.846932,75.4133295 122.336938,74.3140071 122.336938,72.886 C122.336938,71.54866 122.892265,70.4210046 124.002938,69.503 C125.11361,68.5849954 126.76826,67.9333353 128.966938,67.548 L133.284938,66.8 L133.284938,65.882 C133.284938,64.8393281 132.978941,64.0176697 132.366938,63.417 C131.754934,62.8163303 130.904943,62.516 129.816938,62.516 C127.572926,62.516 126.110941,63.5359898 125.430938,65.576 L122.608938,64.08 C123.01694,62.7199932 123.849931,61.6433373 125.107938,60.85 C126.365944,60.0566627 127.912928,59.66 129.748938,59.66 C131.947615,59.66 133.692931,60.1699949 134.984938,61.19 C136.276944,62.2100051 136.922938,63.7059901 136.922938,65.678 L136.922938,73.362 C136.922938,73.7926688 137.01927,74.109999 137.211938,74.314 C137.404605,74.518001 137.727602,74.62 138.180938,74.62 Z M128.660938,74.586 C129.884944,74.586 130.9616,74.2913363 131.890938,73.702 C132.820276,73.1126637 133.284938,72.3306715 133.284938,71.356 L133.284938,69.316 L129.578938,70.064 C128.400265,70.2906678 127.527607,70.607998 126.960938,71.016 C126.394268,71.424002 126.110938,71.9679966 126.110938,72.648 C126.110938,73.2826698 126.331935,73.7643317 126.773938,74.093 C127.21594,74.4216683 127.844933,74.586 128.660938,74.586 Z M153.152271,75.878 C152.608268,76.3313356 151.945275,76.688332 151.163271,76.949 C150.381267,77.209668 149.536942,77.34 148.630271,77.34 C147.066263,77.34 145.813942,76.9490039 144.873271,76.167 C143.9326,75.3849961 143.450938,74.1666749 143.428271,72.512 L143.428271,62.856 L140.198271,62.856 L140.198271,60 L143.428271,60 L143.428271,56.022 L147.066271,55.002 L147.066271,60 L153.016271,60 L153.016271,62.856 L147.066271,62.856 L147.066271,71.9 C147.066271,72.7160041 147.287269,73.3223314 147.729271,73.719 C148.171273,74.1156687 148.7776,74.314 149.548271,74.314 C150.590943,74.314 151.508934,73.951337 152.302271,73.226 L153.152271,75.878 Z M158.331604,57.144 C157.560934,57.144 156.960273,56.9456687 156.529604,56.549 C156.098935,56.1523314 155.883604,55.591337 155.883604,54.866 C155.883604,54.140663 156.098935,53.5853353 156.529604,53.2 C156.960273,52.8146647 157.560934,52.622 158.331604,52.622 C159.102275,52.622 159.697269,52.8146647 160.116604,53.2 C160.53594,53.5853353 160.745604,54.140663 160.745604,54.866 C160.745604,55.591337 160.53594,56.1523314 160.116604,56.549 C159.697269,56.9456687 159.102275,57.144 158.331604,57.144 Z M160.133604,77 L156.495604,77 L156.495604,60 L160.133604,60 L160.133604,77 Z M173.234938,59.66 C175.886951,59.66 177.96093,60.4419922 179.456938,62.006 C180.952945,63.5700078 181.700938,65.7346528 181.700938,68.5 C181.700938,71.2653472 180.952945,73.4299922 179.456938,74.994 C177.96093,76.5580078 175.886951,77.34 173.234938,77.34 C170.582924,77.34 168.508945,76.5580078 167.012938,74.994 C165.51693,73.4299922 164.768938,71.2653472 164.768938,68.5 C164.768938,65.7346528 165.51693,63.5700078 167.012938,62.006 C168.508945,60.4419922 170.582924,59.66 173.234938,59.66 Z M173.234938,62.516 C171.693597,62.516 170.509275,63.0316615 169.681938,64.063 C168.8546,65.0943385 168.440938,66.5733237 168.440938,68.5 C168.440938,70.4266763 168.8546,71.9056615 169.681938,72.937 C170.509275,73.9683385 171.693597,74.484 173.234938,74.484 C174.776279,74.484 175.966267,73.9626719 176.804938,72.92 C177.643608,71.8773281 178.062938,70.4040095 178.062938,68.5 C178.062938,66.5959905 177.643608,65.1226719 176.804938,64.08 C175.966267,63.0373281 174.776279,62.516 173.234938,62.516 Z M195.448271,59.66 C197.329614,59.66 198.865265,60.2039946 200.055271,61.292 C201.245277,62.3800054 201.840271,63.9439898 201.840271,65.984 L201.840271,77 L198.202271,77 L198.202271,67.14 C198.202271,64.147985 196.989616,62.652 194.564271,62.652 C193.294931,62.652 192.206942,63.088329 191.300271,63.961 C190.3936,64.833671 189.940271,66.1766576 189.940271,67.99 L189.940271,77 L186.302271,77 L186.302271,60 L189.532271,60 L189.702271,62.822 C190.26894,61.7566613 191.050933,60.9633359 192.048271,60.442 C193.045609,59.9206641 194.178931,59.66 195.448271,59.66 Z M42.7429375,113 L39.4109375,113 L39.4109375,100.012 L39.6489375,93.824 L39.6149375,93.824 L32.7809375,113 L29.7549375,113 L22.9209375,93.824 L22.8869375,93.824 L23.1589375,100.012 L23.1589375,113 L19.7929375,113 L19.7929375,90.56 L25.1989375,90.56 L29.7209375,103.548 L31.2849375,108.886 L31.3529375,108.886 L32.9509375,103.548 L37.4389375,90.56 L42.7429375,90.56 L42.7429375,113 Z M56.0822708,95.66 C58.7342841,95.66 60.8082634,96.4419922 62.3042708,98.006 C63.8002783,99.5700078 64.5482708,101.734653 64.5482708,104.5 C64.5482708,107.265347 63.8002783,109.429992 62.3042708,110.994 C60.8082634,112.558008 58.7342841,113.34 56.0822708,113.34 C53.4302576,113.34 51.3562783,112.558008 49.8602708,110.994 C48.3642634,109.429992 47.6162708,107.265347 47.6162708,104.5 C47.6162708,101.734653 48.3642634,99.5700078 49.8602708,98.006 C51.3562783,96.4419922 53.4302576,95.66 56.0822708,95.66 Z M56.0822708,98.516 C54.5409298,98.516 53.3566083,99.0316615 52.5292708,100.063 C51.7019334,101.094338 51.2882708,102.573324 51.2882708,104.5 C51.2882708,106.426676 51.7019334,107.905662 52.5292708,108.937 C53.3566083,109.968338 54.5409298,110.484 56.0822708,110.484 C57.6236119,110.484 58.8136,109.962672 59.6522708,108.92 C60.4909417,107.877328 60.9102708,106.40401 60.9102708,104.5 C60.9102708,102.59599 60.4909417,101.122672 59.6522708,100.08 C58.8136,99.0373281 57.6236119,98.516 56.0822708,98.516 Z M84.8916042,88.35 L84.8916042,113 L81.6956042,113 L81.4916042,109.974 C80.992935,110.994005 80.2392759,111.809997 79.2306042,112.422 C78.2219325,113.034003 77.0716106,113.34 75.7796042,113.34 C73.4449258,113.34 71.6032776,112.563674 70.2546042,111.011 C68.9059308,109.458326 68.2316042,107.299347 68.2316042,104.534 C68.2316042,101.768653 68.9059308,99.5983412 70.2546042,98.023 C71.6032776,96.4476588 73.4449258,95.66 75.7796042,95.66 C77.0262771,95.66 78.1255994,95.9376639 79.0776042,96.493 C80.0296089,97.0483361 80.754935,97.8019952 81.2536042,98.754 L81.2536042,88.35 L84.8916042,88.35 Z M76.5956042,110.416 C78.0236113,110.416 79.1569333,109.906005 79.9956042,108.886 C80.834275,107.865995 81.2536042,106.472009 81.2536042,104.704 L81.2536042,104.296 C81.2536042,102.527991 80.834275,101.139672 79.9956042,100.131 C79.1569333,99.1223283 78.0236113,98.618 76.5956042,98.618 C75.1222635,98.618 73.9719416,99.1336615 73.1446042,100.165 C72.3172667,101.196338 71.9036042,102.641324 71.9036042,104.5 C71.9036042,106.358676 72.3172667,107.809328 73.1446042,108.852 C73.9719416,109.894672 75.1222635,110.416 76.5956042,110.416 Z M105.676938,103.99 C105.676938,104.647337 105.631605,105.270664 105.540938,105.86 L93.0969375,105.86 C93.3009385,107.356007 93.8335999,108.494996 94.6949375,109.277 C95.5562752,110.059004 96.6669307,110.45 98.0269375,110.45 C99.1376097,110.45 100.061267,110.251669 100.797938,109.855 C101.534608,109.458331 102.038936,108.886004 102.310938,108.138 L105.336938,109.396 C104.067598,112.025346 101.630956,113.34 98.0269375,113.34 C95.3522575,113.34 93.2612784,112.558008 91.7539375,110.994 C90.2465967,109.429992 89.4929375,107.265347 89.4929375,104.5 C89.4929375,101.711986 90.2182636,99.5416744 91.6689375,97.989 C93.1196114,96.4363256 95.159591,95.66 97.7889375,95.66 C100.282283,95.66 102.220264,96.4193257 103.602938,97.938 C104.985611,99.4566743 105.676938,101.473987 105.676938,103.99 Z M97.7889375,98.55 C96.4742643,98.55 95.4146082,98.9353295 94.6099375,99.706 C93.8052668,100.476671 93.3009385,101.598659 93.0969375,103.072 L102.276938,103.072 C102.095603,101.643993 101.613941,100.533337 100.831938,99.74 C100.049934,98.9466627 99.0356104,98.55 97.7889375,98.55 Z M113.712271,108.036 C113.712271,108.874671 113.836936,109.458332 114.086271,109.787 C114.335605,110.115668 114.800267,110.28 115.480271,110.28 C115.91094,110.28 116.279269,110.251667 116.585271,110.195 C116.891272,110.138333 117.270935,110.019334 117.724271,109.838 L117.316271,112.762 C116.5456,113.147335 115.604943,113.34 114.494271,113.34 C112.975597,113.34 111.859274,112.954671 111.145271,112.184 C110.431267,111.413329 110.074271,110.200675 110.074271,108.546 L110.074271,88.35 L113.712271,88.35 L113.712271,108.036 Z" id="Open-Application-Mod" fill="#2681D6"></path>
            </g>
        </g>
    </g>
</svg>