<?xml version="1.0" encoding="UTF-8"?>
<svg width="290px" height="32px" viewBox="0 0 290 32" version="1.1" xmlns="http://www.w3.org/2000/svg" xmlns:xlink="http://www.w3.org/1999/xlink">
    <!-- Generator: Sketch 51.3 (57544) - http://www.bohemiancoding.com/sketch -->
    <title>Group 2</title>
    <desc>Created with Sketch.</desc>
    <defs>
        <polygon id="path-1" points="6.48418675 22.5466867 5.46159639 19.5399096 0.146837349 17.0184488 0.146837349 12.2285392 0.751129518 8.9503012 5.46159639 4.03652108 10.1355422 0.192771084 16.8151355 0.192771084 20.9518072 0.701807229 25.9834337 4.03652108 28.5444277 8.9503012 29.8712349 12.2285392 29.8712349 17.0184488 29.8712349 20.4107681 25.4250753 20.4107681 24.8017696 22.5466867 27.8330196 22.5466867 27.2562123 25.0515813 25.4250753 25.0515813 20.4299699 28.1916416 16.1167169 29.6295181 10.1355422 28.6961596 5.46159639 25.0515813 3.22364458 22.5466867"></polygon>
    </defs>
    <g id="Page-1" stroke="none" stroke-width="1" fill="none" fill-rule="evenodd">
        <g id="Brand-1:-ohm-bound" transform="translate(-32.000000, -197.000000)">
            <g id="Group-2" transform="translate(32.000000, 195.000000)">
                <g id="OAM-ohm-icon" transform="translate(0.000000, 2.000000)">
                    <g id="Group" transform="translate(0.192771, 1.542169)">
                        <mask id="mask-2" fill="white">
                            <use xlink:href="#path-1"></use>
                        </mask>
                        <g id="Path-2" fill-rule="nonzero"></g>
                        <circle id="Oval-2" fill="#DDE7F5" fill-rule="nonzero" mask="url(#mask-2)" cx="15.8072289" cy="14.6506024" r="8.48192771"></circle>
                        <rect id="Rectangle-4" fill="#DDE7F5" fill-rule="nonzero" mask="url(#mask-2)" x="5.01204819" y="24.2891566" width="21.2048193" height="4.62650602"></rect>
                        <rect id="Rectangle-5" fill="#DDE7F5" fill-rule="nonzero" mask="url(#mask-2)" x="11.1807229" y="20.0481928" width="8.86746988" height="5.78313253"></rect>
                        <path d="M27.6876394,21.491172 C27.4349523,21.491172 27.2307006,21.6963235 27.2307006,21.9501238 L27.2307006,23.3269792 L21.3046604,23.3269792 L21.2932369,22.4568066 C23.841585,20.6609282 25.3599929,17.7410767 25.3599929,14.6064358 C25.3599929,9.3160983 21.0743632,5.01204819 15.8072289,5.01204819 C10.5400946,5.01204819 6.25446497,9.3160983 6.25446497,14.6064358 C6.25446497,17.7254724 7.77013119,20.6590924 10.3097974,22.4535939 C10.3122344,22.4554298 10.3122344,22.7467112 10.3097974,23.3274382 L4.38375725,23.3274382 L4.38375725,21.9505828 C4.38375725,21.6967824 4.17950558,21.4916309 3.92681838,21.4916309 C3.67413119,21.4916309 3.46987952,21.6967824 3.46987952,21.9505828 L3.46987952,24.2453418 L11.2117947,24.2453418 L11.2378402,22.253032 C11.2401249,22.0579775 11.11995,21.8918369 10.9495118,21.8234531 C10.9193539,21.7775579 10.8827988,21.7357933 10.8352771,21.7018309 C8.5391593,20.0794362 7.1683427,17.4266947 7.1683427,14.6059769 C7.1683427,9.82140424 11.0436412,5.92949287 15.8072289,5.92949287 C20.5708166,5.92949287 24.4461151,9.82140424 24.4461151,14.6059769 C24.4461151,17.4927838 23.0245783,20.1804056 20.6439268,21.795457 C20.5991468,21.8252889 20.5657903,21.8647588 20.5356323,21.9060644 C20.4387613,21.9918884 20.3747898,22.1130517 20.3766176,22.2525731 L20.4026631,24.2444239 L28.1445783,24.2444239 L28.1445783,21.9496649 C28.1445783,21.6963235 27.9403266,21.491172 27.6876394,21.491172 Z" id="Shape" stroke="#2681D6" fill="#2681D6" fill-rule="nonzero" mask="url(#mask-2)"></path>
                    </g>
                    <circle id="Oval" stroke="#2681D6" stroke-width="2" fill-rule="nonzero" cx="16" cy="16" r="15"></circle>
                </g>
                <text id="Open-Application-Mod" font-family="WorkSans-Medium, Work Sans" font-size="21" font-weight="400" line-spacing="36" letter-spacing="-0.03499999" fill="#2681D6">
                    <tspan x="44.7304688" y="20.0546875">Open Application Model</tspan>
                </text>
            </g>
        </g>
    </g>
</svg>