<?xml version="1.0" encoding="UTF-8"?>
<svg width="413px" height="342px" viewBox="0 0 413 342" version="1.1" xmlns="http://www.w3.org/2000/svg" xmlns:xlink="http://www.w3.org/1999/xlink">
    <!-- Generator: Sketch 51.3 (57544) - http://www.bohemiancoding.com/sketch -->
    <title>illustration 01</title>
    <desc>Created with Sketch.</desc>
    <defs>
        <rect id="path-1" x="0" y="0" width="425" height="387"></rect>
        <linearGradient x1="108.206185%" y1="96.7485313%" x2="54.8527252%" y2="27.2488985%" id="linearGradient-3">
            <stop stop-color="#60A2E0" offset="0%"></stop>
            <stop stop-color="#E4ECF7" offset="100%"></stop>
        </linearGradient>
    </defs>
    <g id="Page-1" stroke="none" stroke-width="1" fill="none" fill-rule="evenodd">
        <g id="mockup-website]" transform="translate(-350.000000, -156.000000)">
            <g id="illustration-01" transform="translate(323.652344, 95.621094)">
                <g id="Group-2" opacity="0.635435268" transform="translate(0.347656, 0.378906)">
                    <mask id="mask-2" fill="white">
                        <use xlink:href="#path-1"></use>
                    </mask>
                    <g id="Rectangle-6" fill-rule="nonzero"></g>
                    <circle id="Oval-3" fill="url(#linearGradient-3)" fill-rule="nonzero" mask="url(#mask-2)" cx="306.5" cy="336.5" r="191.5"></circle>
                    <rect id="Rectangle-12" stroke="#321675" stroke-width="5" fill-opacity="0.6" fill="#FEFFFF" fill-rule="nonzero" mask="url(#mask-2)" x="143.152344" y="332.121094" width="110" height="161" rx="6"></rect>
                </g>
                <rect id="Rectangle-12" stroke="#321675" stroke-width="3" opacity="0.06" fill-rule="nonzero" x="82.5" y="121.5" width="78" height="163" rx="6"></rect>
                <g id="code" transform="translate(31.000000, 217.000000)" fill-rule="nonzero" stroke="#D0C6E6" stroke-linecap="round" stroke-width="10">
                    <path d="M0.696407204,2.53912814 L144.190262,2.53912814" id="Path-17"></path>
                    <path d="M0.696407204,24.2806214 L144.190262,24.2806214" id="Path-17"></path>
                    <path d="M0.696407204,78.6343544 L144.190262,78.6343544" id="Path-17"></path>
                    <path d="M0.696407204,46.0221146 L78.9657828,46.0221146" id="Path-17"></path>
                </g>
                <path d="M179.382812,121.359375 L304.070312,121.359375 C335.765625,121.947917 351.613281,137.795573 351.613281,168.902344 C351.613281,200.009115 351.613281,272.928385 351.613281,387.660156" id="Path-16" stroke="#53C5F0" stroke-width="3" fill-rule="nonzero"></path>
                <circle id="Oval" stroke="#53C5F0" stroke-width="3" fill="#FFFFFF" fill-rule="nonzero" cx="304.5" cy="121.5" r="4.5"></circle>
                <circle id="Oval" stroke="#53C5F0" stroke-width="3" fill="#FFFFFF" fill-rule="nonzero" cx="351.5" cy="165.5" r="4.5"></circle>
                <circle id="Oval" fill="#53C5F0" fill-rule="nonzero" cx="373.5" cy="99.5" r="2.5"></circle>
                <path d="M196.375977,276.576172 L373.320312,99.6318359" id="Path-18" stroke="#53C5F0" stroke-width="2" stroke-dasharray="4" fill-rule="nonzero"></path>
                <g id="Group" transform="translate(142.000000, 302.000000) scale(-1, 1) translate(-142.000000, -302.000000) translate(52.000000, 212.000000)" fill-rule="nonzero">
                    <circle id="Oval" fill="#53C5F0" cx="177.5" cy="2.5" r="2.5"></circle>
                    <path d="M0.375976562,179.576172 L177.320312,2.63183594" id="Path-18" stroke="#53C5F0" stroke-width="2" stroke-dasharray="4"></path>
                </g>
                <g id="ruler" transform="translate(259.255859, 100.125000)" fill-rule="nonzero">
                    <rect id="Rectangle-10" stroke="#3995EE" stroke-width="3" fill="#FFFFFF" x="1.640625" y="1.5234375" width="23" height="116"></rect>
                    <rect id="Rectangle-2" fill="#3995EE" x="2" y="8" width="9" height="3"></rect>
                    <rect id="Rectangle-2" fill="#3995EE" x="2" y="14" width="9" height="3"></rect>
                    <rect id="Rectangle-2" fill="#3995EE" x="2" y="20" width="14" height="3"></rect>
                    <rect id="Rectangle-2" fill="#3995EE" x="2" y="26" width="9" height="3"></rect>
                    <rect id="Rectangle-2" fill="#3995EE" x="2" y="32" width="9" height="3"></rect>
                    <rect id="Rectangle-2" fill="#3995EE" x="2" y="38" width="14" height="3"></rect>
                    <rect id="Rectangle-2" fill="#3995EE" x="2" y="44" width="9" height="3"></rect>
                    <rect id="Rectangle-2" fill="#3995EE" x="2" y="50" width="9" height="3"></rect>
                    <rect id="Rectangle-2" fill="#3995EE" x="2" y="56" width="14" height="3"></rect>
                    <rect id="Rectangle-2" fill="#3995EE" x="2" y="62" width="9" height="3"></rect>
                    <rect id="Rectangle-2" fill="#3995EE" x="2" y="68" width="9" height="3"></rect>
                    <rect id="Rectangle-2" fill="#3995EE" x="2" y="74" width="14" height="3"></rect>
                    <rect id="Rectangle-2" fill="#3995EE" x="2" y="80" width="9" height="3"></rect>
                    <rect id="Rectangle-2" fill="#3995EE" x="2" y="86" width="9" height="3"></rect>
                    <rect id="Rectangle-2" fill="#3995EE" x="2" y="92" width="14" height="3"></rect>
                    <rect id="Rectangle-2" fill="#3995EE" x="2" y="98" width="9" height="3"></rect>
                    <rect id="Rectangle-2" fill="#3995EE" x="2" y="104" width="9" height="3"></rect>
                    <rect id="Rectangle-2" fill="#3995EE" x="2" y="110" width="14" height="3"></rect>
                </g>
                <g id="app-block" transform="translate(101.000000, 61.000000)" fill-rule="nonzero">
                    <rect id="Rectangle-9" fill="#3995EE" style="mix-blend-mode: multiply;" x="4.4921875" y="4.125" width="119" height="119" rx="12"></rect>
                    <rect id="Rectangle-9" fill="#321675" style="mix-blend-mode: multiply;" x="0.4921875" y="0.125" width="119" height="119" rx="12"></rect>
                    <path d="M14.4130859,14.0458984 L105.571289,105.204102" id="Path-14" stroke="#FFFFFF" stroke-width="3" stroke-linecap="round"></path>
                    <path d="M14.4130859,14.0458984 L105.571289,105.204102" id="Path-14" stroke="#FFFFFF" stroke-width="3" stroke-linecap="round" transform="translate(59.992188, 59.625000) scale(-1, 1) translate(-59.992188, -59.625000) "></path>
                    <circle id="Oval-4" fill="#3995EE" style="mix-blend-mode: multiply;" cx="60.9921875" cy="63.625" r="44.5"></circle>
                    <circle id="Oval-4" stroke="#FFFFFF" stroke-width="3" fill="#321675" cx="59.9921875" cy="59.625" r="43"></circle>
                    <path d="M60.2421875,50.6669922 L60.2421875,68.5830078" id="Path-15" stroke="#3995EE" stroke-width="3" stroke-linecap="round"></path>
                    <path d="M51.0841797,59.425 L69.0001953,59.425" id="Path-15" stroke="#3995EE" stroke-width="3" stroke-linecap="round"></path>
                </g>
                <path d="M81.3476562,389.765625 L428.511719,389.765625" id="Path-3" stroke="#2681D6" stroke-width="6" fill-rule="nonzero"></path>
                <path d="M295.511719,259.765625 L555.511719,259.765625" id="Path-3" stroke="#2681D6" stroke-width="6" fill-rule="nonzero" transform="translate(425.511719, 259.765625) rotate(-270.000000) translate(-425.511719, -259.765625) "></path>
                <circle id="Oval-5" stroke="#2681D6" stroke-width="6" fill="#FFFFFF" fill-rule="nonzero" cx="426" cy="122.125" r="9"></circle>
                <circle id="Oval-5" stroke="#2681D6" stroke-width="6" fill="#FFFFFF" fill-rule="nonzero" cx="83" cy="389.765625" r="9"></circle>
                <rect id="Rectangle-3" stroke="#3995EE" stroke-width="4" fill="#FFFFFF" fill-rule="nonzero" x="308" y="187" width="87" height="85" rx="8"></rect>
                <rect id="Rectangle-3" fill="#53C5F0" fill-rule="nonzero" style="mix-blend-mode: multiply;" opacity="0.75" x="313" y="192" width="91" height="89" rx="2"></rect>
                <path d="M318.320312,203.591797 L384.320312,203.591797" id="Path-17" stroke="#3995EE" stroke-width="4" stroke-linecap="round" fill-rule="nonzero"></path>
                <path d="M318.320312,213.591797 L384.320312,213.591797" id="Path-17" stroke="#3995EE" stroke-width="4" stroke-linecap="round" fill-rule="nonzero"></path>
                <path d="M318.320312,238.591797 L384.320312,238.591797" id="Path-17" stroke="#3995EE" stroke-width="4" stroke-linecap="round" fill-rule="nonzero"></path>
                <path d="M318.320312,223.591797 L354.320312,223.591797" id="Path-17" stroke="#3995EE" stroke-width="4" stroke-linecap="round" fill-rule="nonzero"></path>
                <g id="console" transform="translate(182.000000, 240.000000)">
                    <rect id="Rectangle-11" stroke="#321675" stroke-width="3" fill="#FFFFFF" fill-rule="nonzero" x="1.5" y="1.5" width="254" height="107"></rect>
                    <circle id="Oval" stroke="#321675" stroke-width="2" fill="#FFFFFF" fill-rule="nonzero" cx="246.5" cy="10.5" r="3.5"></circle>
                    <circle id="Oval" stroke="#321675" stroke-width="2" fill="#FFFFFF" fill-rule="nonzero" cx="235.5" cy="10.5" r="3.5"></circle>
                    <circle id="Oval" stroke="#321675" stroke-width="2" fill="#FFFFFF" fill-rule="nonzero" cx="224.5" cy="10.5" r="3.5"></circle>
                    <path d="M1.5,11.5 L1.5,118.5 L255.5,118.5 L255.5,19.5 L44.4023438,19.5 L44.4023438,11.5 L1.5,11.5 Z" id="Rectangle-11" stroke="#321675" stroke-width="3" fill="#FFFFFF" fill-rule="nonzero"></path>
                    <path d="M9.3203125,28.5917969 L247.320312,28.5917969" id="Path-17" stroke="#3995EE" stroke-width="3" stroke-linecap="round" fill-rule="nonzero"></path>
                    <text id="|&gt;" font-family="SFMono-Bold, SF Mono" font-size="14" font-style="condensed" font-weight="bold" letter-spacing="1.25" fill="#3995EE">
                        <tspan x="7" y="51">|&gt;</tspan>
                    </text>
                </g>
                <circle id="Oval-5" stroke="#9D8BC4" stroke-width="3" fill="#FFFFFF" fill-rule="nonzero" cx="83" cy="241.125" r="17.5"></circle>
                <polygon id="Fill-1" fill="#3995EE" points="84 240 84 234 81 234 81 240 75 240 75 243 81 243 81 249 84 249 84 243 90 243 90 240"></polygon>
                <rect id="Rectangle-7" stroke="#60A2E0" fill="#FFFFFF" fill-rule="nonzero" x="112.5" y="351.265625" width="49" height="24"></rect>
                <text id="DEVS" font-family="SpaceMono-Regular, Space Mono" font-size="16" font-weight="normal" fill="#60A2E0">
                    <tspan x="118" y="368.765625">DEVS</tspan>
                </text>
            </g>
        </g>
    </g>
</svg>