<?xml version="1.0" encoding="UTF-8"?>
<svg width="90px" height="89px" viewBox="0 0 90 89" version="1.1" xmlns="http://www.w3.org/2000/svg" xmlns:xlink="http://www.w3.org/1999/xlink">
    <!-- Generator: Sketch 51.3 (57544) - http://www.bohemiancoding.com/sketch -->
    <title>php</title>
    <desc>Created with Sketch.</desc>
    <defs>
        <radialGradient cx="30.0275%" cy="17.5288176%" fx="30.0275%" fy="17.5288176%" r="124.754011%" gradientTransform="translate(0.300275,0.175288),scale(0.525937,1.000000),translate(-0.300275,-0.175288)" id="radialGradient-1">
            <stop stop-color="#FFFFFF" offset="0%"></stop>
            <stop stop-color="#4C6B97" offset="50%"></stop>
            <stop stop-color="#231F20" offset="100%"></stop>
        </radialGradient>
    </defs>
    <g id="Page-1" stroke="none" stroke-width="1" fill="none" fill-rule="evenodd">
        <g id="website-layout-02" transform="translate(-450.000000, -1775.000000)" fill-rule="nonzero">
            <g id="about" transform="translate(-1.000000, 812.000000)">
                <g id="langus" transform="translate(194.500000, 962.000000)">
                    <g id="php" transform="translate(256.570312, 1.000000)">
                        <circle id="Oval-7" fill="#FFFFFF" cx="45" cy="44.5" r="44.5"></circle>
                        <ellipse id="Oval" fill="url(#radialGradient-1)" cx="45" cy="42.83" rx="32" ry="16.83"></ellipse>
                        <ellipse id="Oval" fill="#6181B6" cx="45" cy="42.83" rx="30.75" ry="15.58"></ellipse>
                        <path d="M51.23,47.87 L52.75,40 C53.09,38.23 52.81,36.91 51.9,36.07 C50.99,35.23 49.53,34.87 47.33,34.87 L44.7,34.87 L45.45,31 C45.4800323,30.8528725 45.4423504,30.7000375 45.3473681,30.5837327 C45.2523859,30.4674279 45.1101613,30.3999694 44.96,30.4 L41.31,30.4 C41.0723657,30.3999515 40.8675269,30.5671669 40.82,30.8 L39.2,39.14 C39.0754125,38.2487275 38.6970291,37.4121184 38.11,36.73 C36.7929235,35.4144936 34.9656288,34.7420492 33.11,34.89 L26,34.89 C25.7623657,34.8899515 25.5575269,35.0571669 25.51,35.29 L22.25,52.16 C22.2199677,52.3071275 22.2576496,52.4599625 22.3526319,52.5762673 C22.4476141,52.6925721 22.5898387,52.7600306 22.74,52.76 L26.41,52.76 C26.6476343,52.7600485 26.8524731,52.5928331 26.9,52.36 L27.69,48.28 L30.43,48.28 C31.6370283,48.306733 32.8410193,48.1482244 34,47.81 C34.9818179,47.4872359 35.8799837,46.9510685 36.63,46.24 C37.2426131,45.679988 37.765398,45.0290364 38.18,44.31 L37.52,47.68 C37.4899677,47.8271275 37.5276496,47.9799625 37.6226319,48.0962673 C37.7176141,48.2125721 37.8598387,48.2800306 38.01,48.28 L41.66,48.28 C41.8976343,48.2800485 42.1024731,48.1128331 42.15,47.88 L44,38.61 L46.5,38.61 C47.57,38.61 47.88,38.82 47.96,38.91 C48.04,39 48.2,39.29 48.02,40.21 L46.57,47.67 C46.5399677,47.8171275 46.5776496,47.9699625 46.6726319,48.0862673 C46.7676141,48.2025721 46.9098387,48.2700306 47.06,48.27 L50.76,48.27 C50.9900828,48.2607989 51.1841306,48.0956519 51.23,47.87 Z M34.33,41.38 C34.2063423,42.3476314 33.7333457,43.2367226 33,43.88 C32.1020522,44.4337255 31.0519707,44.6892453 30,44.61 L28.41,44.61 L29.59,38.55 L31.7,38.55 C33.25,38.55 33.87,38.88 34.12,39.16 C34.5065834,39.8351809 34.5831223,40.6443064 34.33,41.38 Z" id="Shape" fill="#FFFFFF"></path>
                        <path d="M66.82,36.74 C65.5029235,35.4244936 63.6756288,34.7520492 61.82,34.9 L54.73,34.9 C54.4923657,34.8999515 54.2875269,35.0671669 54.24,35.3 L51,52.16 C50.9699677,52.3071275 51.0076496,52.4599625 51.1026319,52.5762673 C51.1976141,52.6925721 51.3398387,52.7600306 51.49,52.76 L55.16,52.76 C55.3976343,52.7600485 55.6024731,52.5928331 55.65,52.36 L56.44,48.28 L59.18,48.28 C60.3898539,48.3110059 61.5972855,48.1558611 62.76,47.82 C63.7418179,47.4972359 64.6399837,46.9610685 65.39,46.25 C66.6726122,45.0946108 67.5374518,43.5477432 67.85,41.85 C68.3445016,40.0799955 67.9615739,38.180228 66.82,36.74 Z M63,41.38 C62.8895424,42.3406567 62.4348239,43.2287788 61.72,43.88 C60.8220522,44.4337255 59.7719707,44.6892453 58.72,44.61 L57.09,44.61 L58.27,38.55 L60.38,38.55 C61.93,38.55 62.55,38.88 62.8,39.16 C63.1832638,39.836666 63.2561524,40.645729 63,41.38 Z" id="Shape" fill="#FFFFFF"></path>
                        <path d="M31.69,38.05 C32.6854878,37.9241063 33.6899991,38.2013371 34.48,38.82 C34.9899745,39.6062019 35.1115807,40.5827365 34.81,41.47 C34.6793532,42.5518357 34.1562981,43.5481312 33.34,44.27 C32.3565819,44.9006835 31.1951502,45.1954275 30.03,45.11 L27.8,45.11 L29.17,38.05 L31.69,38.05 Z M22.69,52.26 L26.36,52.26 L27.23,47.78 L30.38,47.78 C31.5391608,47.8106624 32.6961107,47.662249 33.81,47.34 C34.7257253,47.038081 35.5626713,46.5359134 36.26,45.87 C37.4654214,44.7865779 38.277773,43.3341918 38.57,41.74 C39.0383147,40.1320774 38.7114009,38.3972053 37.69,37.07 C36.7166667,35.9566667 35.1666667,35.4 33.04,35.4 L26,35.4 L22.69,52.26 Z" id="Shape" fill="#000004"></path>
                        <path d="M41.31,30.91 L45,30.91 L44.13,35.39 L47.38,35.39 C49.4266667,35.39 50.8366667,35.7466667 51.61,36.46 C52.3833333,37.1733333 52.6166667,38.3266667 52.31,39.92 L50.78,47.77 L47,47.77 L48.45,40.31 C48.6602749,39.7331192 48.5939129,39.09162 48.27,38.57 C47.7408225,38.1892495 47.0863193,38.0247296 46.44,38.11 L43.56,38.11 L41.68,47.77 L38,47.77 L41.31,30.91 Z" id="Shape" fill="#000004"></path>
                        <path d="M60.38,38.05 C61.3754878,37.9241063 62.3799991,38.2013371 63.17,38.82 C63.6799745,39.6062019 63.8015807,40.5827365 63.5,41.47 C63.3638415,42.5596608 62.8295873,43.560497 62,44.28 C61.0165819,44.9106835 59.8551502,45.2054275 58.69,45.12 L56.49,45.12 L57.86,38.06 L60.38,38.05 Z M51.38,52.26 L55.1,52.26 L56,47.77 L59.15,47.77 C60.3091608,47.8006624 61.4661107,47.652249 62.58,47.33 C63.4841267,47.0270216 64.3103834,46.5285361 65,45.87 C66.2054214,44.7865779 67.017773,43.3341918 67.31,41.74 C67.7783147,40.1320774 67.4514009,38.3972053 66.43,37.07 C65.4766667,35.95 63.9233333,35.39 61.77,35.39 L54.7,35.39 L51.38,52.26 Z" id="Shape" fill="#000004"></path>
                    </g>
                </g>
            </g>
        </g>
    </g>
</svg>