<?xml version="1.0" encoding="UTF-8"?>
<svg width="368px" height="136px" viewBox="0 0 368 136" version="1.1" xmlns="http://www.w3.org/2000/svg" xmlns:xlink="http://www.w3.org/1999/xlink">
    <!-- Generator: Sketch 51.3 (57544) - http://www.bohemiancoding.com/sketch -->
    <title>illustration 03</title>
    <desc>Created with Sketch.</desc>
    <defs>
        <rect id="path-1" x="0" y="0.27734375" width="425" height="113.722656"></rect>
        <linearGradient x1="68.4052709%" y1="105.018943%" x2="54.8527252%" y2="27.2488985%" id="linearGradient-3">
            <stop stop-color="#60A2E0" offset="0%"></stop>
            <stop stop-color="#DEE8F6" offset="100%"></stop>
        </linearGradient>
    </defs>
    <g id="Page-1" stroke="none" stroke-width="1" fill="none" fill-rule="evenodd">
        <g id="illustration-03" transform="translate(-70.000000, 0.000000)">
            <g id="Group-3" transform="translate(219.000000, 68.000000) scale(1, -1) translate(-219.000000, -68.000000) ">
                <g id="Group-2" opacity="0.635435268" transform="translate(0.000000, 7.000000)">
                    <mask id="mask-2" fill="white">
                        <use xlink:href="#path-1"></use>
                    </mask>
                    <g id="Rectangle-6" fill-rule="nonzero"></g>
                    <ellipse id="Oval-3" fill="url(#linearGradient-3)" fill-rule="nonzero" mask="url(#mask-2)" cx="306.5" cy="115.294922" rx="191.5" ry="139.705078"></ellipse>
                    <rect id="Rectangle-14" stroke="#D0C6E6" stroke-width="6" fill-rule="nonzero" mask="url(#mask-2)" x="193.652344" y="10.3789062" width="154" height="114" rx="10"></rect>
                </g>
                <path d="M247.785156,33.9726562 L296.615234,65.9257812 L347.664062,33.9726562" id="Path-4" stroke="#9D8BC4" stroke-width="3" stroke-linecap="round" stroke-dasharray="4,10" fill-rule="nonzero"></path>
                <path d="M296.863281,116.5 L296.863281,21.6640625" id="Path-5" stroke="#9D8BC4" stroke-width="3" stroke-linecap="round" stroke-dasharray="5,8" fill-rule="nonzero"></path>
                <rect id="Rectangle-13" fill="#6EC1EB" fill-rule="nonzero" x="214" y="71" width="175" height="27" rx="8"></rect>
                <rect id="Rectangle-8" stroke="#7FD4F4" stroke-width="4" fill="#FFFFFF" fill-rule="nonzero" x="229" y="2" width="36" height="36" rx="5"></rect>
                <rect id="Rectangle-8" stroke="#7FD4F4" stroke-width="4" fill="#FFFFFF" fill-rule="nonzero" x="279" y="2" width="36" height="36" rx="5"></rect>
                <rect id="Rectangle-8" stroke="#7FD4F4" stroke-width="4" fill="#FFFFFF" fill-rule="nonzero" x="329" y="2" width="36" height="36" rx="5"></rect>
                <rect id="Rectangle-13" stroke="#1C7BE3" stroke-width="4" fill-rule="nonzero" x="210" y="79" width="171" height="23" rx="8"></rect>
                <path d="M81,123.386719 L428.164062,123.386719" id="Path-3" stroke="#2681D6" stroke-width="6" fill-rule="nonzero"></path>
                <path d="M385.164063,83.386719 L465.164063,83.386719" id="Path-3" stroke="#2681D6" stroke-width="6" fill-rule="nonzero" transform="translate(425.164063, 83.386719) rotate(-270.000000) translate(-425.164063, -83.386719) "></path>
                <circle id="Oval-5" stroke="#2681D6" stroke-width="6" fill="#FFFFFF" fill-rule="nonzero" cx="425.652344" cy="35.7460938" r="9"></circle>
                <circle id="Oval-5" stroke="#2681D6" stroke-width="6" fill="#FFFFFF" fill-rule="nonzero" cx="82.6523438" cy="123.386719" r="9"></circle>
            </g>
            <rect id="Rectangle-7" stroke="#60A2E0" fill="#FFFFFF" fill-rule="nonzero" x="112.152344" y="30.8867187" width="60" height="24"></rect>
            <path d="M118.648687,37.8 L125.752688,37.8 L125.752688,39.048 L122.872687,39.048 L122.872687,47.752 L125.752688,47.752 L125.752688,49 L118.648687,49 L118.648687,47.752 L121.528687,47.752 L121.528687,39.048 L118.648687,39.048 L118.648687,37.8 Z M134.184687,48.424 L134.376688,48.424 L134.376688,37.8 L135.720687,37.8 L135.720687,49 L133.032688,49 L129.800688,38.376 L129.608688,38.376 L129.608688,49 L128.264688,49 L128.264688,37.8 L130.952687,37.8 L134.184687,48.424 Z M138.408688,37.8 L145.288688,37.8 L145.288688,39.048 L139.752687,39.048 L139.752687,42.76 L145.192688,42.76 L145.192688,44.008 L139.752687,44.008 L139.752687,49 L138.408688,49 L138.408688,37.8 Z M155.080688,49 L153.736688,49 L153.736688,45.256 C153.736688,44.9786653 153.672688,44.7653341 153.544688,44.616 C153.416687,44.4666659 153.192689,44.392 152.872687,44.392 L149.384688,44.392 L149.384688,49 L148.040687,49 L148.040687,37.8 L152.040687,37.8 C152.61669,37.8 153.118019,37.8826658 153.544688,38.048 C153.971356,38.2133342 154.326019,38.4346653 154.608687,38.712 C154.891356,38.9893347 155.104687,39.3119982 155.248688,39.68 C155.392688,40.0480018 155.464687,40.4346646 155.464687,40.84 L155.464687,41.32 C155.464687,41.7360021 155.350022,42.1519979 155.120688,42.568 C154.891353,42.9840021 154.53669,43.3039989 154.056688,43.528 L154.056688,43.72 C154.376689,43.7733336 154.627353,43.9013323 154.808688,44.104 C154.990022,44.3066677 155.080688,44.5946648 155.080688,44.968 L155.080688,49 Z M149.384688,43.144 L151.880688,43.144 C152.638025,43.144 153.200686,42.981335 153.568688,42.656 C153.936689,42.330665 154.120688,41.8533365 154.120688,41.224 L154.120688,40.936 C154.120688,40.3706638 153.936689,39.9146684 153.568688,39.568 C153.200686,39.2213316 152.638025,39.048 151.880688,39.048 L149.384688,39.048 L149.384688,43.144 Z M163.768687,46.216 L158.968687,46.216 L158.152688,49 L156.712688,49 L160.104688,37.8 L162.632687,37.8 L166.024688,49 L164.584687,49 L163.768687,46.216 Z M161.272688,38.376 L159.336688,44.968 L163.400688,44.968 L161.464687,38.376 L161.272688,38.376 Z" id="INFRA" fill="#60A2E0"></path>
        </g>
    </g>
</svg>