<?xml version="1.0" encoding="UTF-8"?>
<svg width="413px" height="342px" viewBox="0 0 413 342" version="1.1" xmlns="http://www.w3.org/2000/svg" xmlns:xlink="http://www.w3.org/1999/xlink">
    <!-- Generator: Sketch 51.3 (57544) - http://www.bohemiancoding.com/sketch -->
    <title>illustration 01</title>
    <desc>Created with Sketch.</desc>
    <defs>
        <rect id="path-1" x="0" y="0" width="425" height="387"></rect>
        <linearGradient x1="108.206185%" y1="96.7485313%" x2="54.8527252%" y2="27.2488985%" id="linearGradient-3">
            <stop stop-color="#60A2E0" offset="0%"></stop>
            <stop stop-color="#E4ECF7" offset="100%"></stop>
        </linearGradient>
    </defs>
    <g id="Page-1" stroke="none" stroke-width="1" fill="none" fill-rule="evenodd">
        <g id="illustration-01" transform="translate(-26.347656, -60.378906)">
            <g id="Group-2" opacity="0.635435268" transform="translate(0.347656, 0.378906)">
                <mask id="mask-2" fill="white">
                    <use xlink:href="#path-1"></use>
                </mask>
                <g id="Rectangle-6" fill-rule="nonzero"></g>
                <circle id="Oval-3" fill="url(#linearGradient-3)" fill-rule="nonzero" mask="url(#mask-2)" cx="306.5" cy="336.5" r="191.5"></circle>
                <rect id="Rectangle-12" stroke="#321675" stroke-width="5" fill-opacity="0.6" fill="#FEFFFF" fill-rule="nonzero" mask="url(#mask-2)" x="143.152344" y="332.121094" width="110" height="161" rx="6"></rect>
            </g>
            <rect id="Rectangle-12" stroke="#321675" stroke-width="3" opacity="0.06" fill-rule="nonzero" x="82.5" y="121.5" width="78" height="163" rx="6"></rect>
            <g id="code" transform="translate(31.000000, 217.000000)" fill-rule="nonzero" stroke="#D0C6E6" stroke-linecap="round" stroke-width="10">
                <path d="M0.696407204,2.53912814 L144.190262,2.53912814" id="Path-17"></path>
                <path d="M0.696407204,24.2806214 L144.190262,24.2806214" id="Path-17"></path>
                <path d="M0.696407204,78.6343544 L144.190262,78.6343544" id="Path-17"></path>
                <path d="M0.696407204,46.0221146 L78.9657828,46.0221146" id="Path-17"></path>
            </g>
            <path d="M179.382812,121.359375 L304.070312,121.359375 C335.765625,121.947917 351.613281,137.795573 351.613281,168.902344 C351.613281,200.009115 351.613281,272.928385 351.613281,387.660156" id="Path-16" stroke="#53C5F0" stroke-width="3" fill-rule="nonzero"></path>
            <circle id="Oval" stroke="#53C5F0" stroke-width="3" fill="#FFFFFF" fill-rule="nonzero" cx="304.5" cy="121.5" r="4.5"></circle>
            <circle id="Oval" stroke="#53C5F0" stroke-width="3" fill="#FFFFFF" fill-rule="nonzero" cx="351.5" cy="165.5" r="4.5"></circle>
            <circle id="Oval" fill="#53C5F0" fill-rule="nonzero" cx="373.5" cy="99.5" r="2.5"></circle>
            <path d="M196.375977,276.576172 L373.320312,99.6318359" id="Path-18" stroke="#53C5F0" stroke-width="2" stroke-dasharray="4" fill-rule="nonzero"></path>
            <g id="Group" transform="translate(142.000000, 302.000000) scale(-1, 1) translate(-142.000000, -302.000000) translate(52.000000, 212.000000)" fill-rule="nonzero">
                <circle id="Oval" fill="#53C5F0" cx="177.5" cy="2.5" r="2.5"></circle>
                <path d="M0.375976562,179.576172 L177.320312,2.63183594" id="Path-18" stroke="#53C5F0" stroke-width="2" stroke-dasharray="4"></path>
            </g>
            <g id="ruler" transform="translate(259.255859, 100.125000)" fill-rule="nonzero">
                <rect id="Rectangle-10" stroke="#3995EE" stroke-width="3" fill="#FFFFFF" x="1.640625" y="1.5234375" width="23" height="116"></rect>
                <rect id="Rectangle-2" fill="#3995EE" x="2" y="8" width="9" height="3"></rect>
                <rect id="Rectangle-2" fill="#3995EE" x="2" y="14" width="9" height="3"></rect>
                <rect id="Rectangle-2" fill="#3995EE" x="2" y="20" width="14" height="3"></rect>
                <rect id="Rectangle-2" fill="#3995EE" x="2" y="26" width="9" height="3"></rect>
                <rect id="Rectangle-2" fill="#3995EE" x="2" y="32" width="9" height="3"></rect>
                <rect id="Rectangle-2" fill="#3995EE" x="2" y="38" width="14" height="3"></rect>
                <rect id="Rectangle-2" fill="#3995EE" x="2" y="44" width="9" height="3"></rect>
                <rect id="Rectangle-2" fill="#3995EE" x="2" y="50" width="9" height="3"></rect>
                <rect id="Rectangle-2" fill="#3995EE" x="2" y="56" width="14" height="3"></rect>
                <rect id="Rectangle-2" fill="#3995EE" x="2" y="62" width="9" height="3"></rect>
                <rect id="Rectangle-2" fill="#3995EE" x="2" y="68" width="9" height="3"></rect>
                <rect id="Rectangle-2" fill="#3995EE" x="2" y="74" width="14" height="3"></rect>
                <rect id="Rectangle-2" fill="#3995EE" x="2" y="80" width="9" height="3"></rect>
                <rect id="Rectangle-2" fill="#3995EE" x="2" y="86" width="9" height="3"></rect>
                <rect id="Rectangle-2" fill="#3995EE" x="2" y="92" width="14" height="3"></rect>
                <rect id="Rectangle-2" fill="#3995EE" x="2" y="98" width="9" height="3"></rect>
                <rect id="Rectangle-2" fill="#3995EE" x="2" y="104" width="9" height="3"></rect>
                <rect id="Rectangle-2" fill="#3995EE" x="2" y="110" width="14" height="3"></rect>
            </g>
            <g id="app-block" transform="translate(101.000000, 61.000000)" fill-rule="nonzero">
                <rect id="Rectangle-9" fill="#3995EE" style="mix-blend-mode: multiply;" x="4.4921875" y="4.125" width="119" height="119" rx="12"></rect>
                <rect id="Rectangle-9" fill="#321675" style="mix-blend-mode: multiply;" x="0.4921875" y="0.125" width="119" height="119" rx="12"></rect>
                <path d="M14.4130859,14.0458984 L105.571289,105.204102" id="Path-14" stroke="#FFFFFF" stroke-width="3" stroke-linecap="round"></path>
                <path d="M14.4130859,14.0458984 L105.571289,105.204102" id="Path-14" stroke="#FFFFFF" stroke-width="3" stroke-linecap="round" transform="translate(59.992188, 59.625000) scale(-1, 1) translate(-59.992188, -59.625000) "></path>
                <circle id="Oval-4" fill="#3995EE" style="mix-blend-mode: multiply;" cx="60.9921875" cy="63.625" r="44.5"></circle>
                <circle id="Oval-4" stroke="#FFFFFF" stroke-width="3" fill="#321675" cx="59.9921875" cy="59.625" r="43"></circle>
                <path d="M60.2421875,50.6669922 L60.2421875,68.5830078" id="Path-15" stroke="#3995EE" stroke-width="3" stroke-linecap="round"></path>
                <path d="M51.0841797,59.425 L69.0001953,59.425" id="Path-15" stroke="#3995EE" stroke-width="3" stroke-linecap="round"></path>
            </g>
            <path d="M81.3476562,389.765625 L428.511719,389.765625" id="Path-3" stroke="#2681D6" stroke-width="6" fill-rule="nonzero"></path>
            <path d="M295.511719,259.765625 L555.511719,259.765625" id="Path-3" stroke="#2681D6" stroke-width="6" fill-rule="nonzero" transform="translate(425.511719, 259.765625) rotate(-270.000000) translate(-425.511719, -259.765625) "></path>
            <circle id="Oval-5" stroke="#2681D6" stroke-width="6" fill="#FFFFFF" fill-rule="nonzero" cx="426" cy="122.125" r="9"></circle>
            <circle id="Oval-5" stroke="#2681D6" stroke-width="6" fill="#FFFFFF" fill-rule="nonzero" cx="83" cy="389.765625" r="9"></circle>
            <rect id="Rectangle-3" stroke="#3995EE" stroke-width="4" fill="#FFFFFF" fill-rule="nonzero" x="308" y="187" width="87" height="85" rx="8"></rect>
            <rect id="Rectangle-3" fill="#53C5F0" fill-rule="nonzero" style="mix-blend-mode: multiply;" opacity="0.75" x="313" y="192" width="91" height="89" rx="2"></rect>
            <path d="M318.320312,203.591797 L384.320312,203.591797" id="Path-17" stroke="#3995EE" stroke-width="4" stroke-linecap="round" fill-rule="nonzero"></path>
            <path d="M318.320312,213.591797 L384.320312,213.591797" id="Path-17" stroke="#3995EE" stroke-width="4" stroke-linecap="round" fill-rule="nonzero"></path>
            <path d="M318.320312,238.591797 L384.320312,238.591797" id="Path-17" stroke="#3995EE" stroke-width="4" stroke-linecap="round" fill-rule="nonzero"></path>
            <path d="M318.320312,223.591797 L354.320312,223.591797" id="Path-17" stroke="#3995EE" stroke-width="4" stroke-linecap="round" fill-rule="nonzero"></path>
            <g id="console" transform="translate(182.000000, 240.000000)">
                <rect id="Rectangle-11" stroke="#321675" stroke-width="3" fill="#FFFFFF" fill-rule="nonzero" x="1.5" y="1.5" width="254" height="107"></rect>
                <circle id="Oval" stroke="#321675" stroke-width="2" fill="#FFFFFF" fill-rule="nonzero" cx="246.5" cy="10.5" r="3.5"></circle>
                <circle id="Oval" stroke="#321675" stroke-width="2" fill="#FFFFFF" fill-rule="nonzero" cx="235.5" cy="10.5" r="3.5"></circle>
                <circle id="Oval" stroke="#321675" stroke-width="2" fill="#FFFFFF" fill-rule="nonzero" cx="224.5" cy="10.5" r="3.5"></circle>
                <path d="M1.5,11.5 L1.5,118.5 L255.5,118.5 L255.5,19.5 L44.4023438,19.5 L44.4023438,11.5 L1.5,11.5 Z" id="Rectangle-11" stroke="#321675" stroke-width="3" fill="#FFFFFF" fill-rule="nonzero"></path>
                <path d="M9.3203125,28.5917969 L247.320312,28.5917969" id="Path-17" stroke="#3995EE" stroke-width="3" stroke-linecap="round" fill-rule="nonzero"></path>
                <text id="|&gt;" font-family="SFMono-Bold, SF Mono" font-size="14" font-style="condensed" font-weight="bold" letter-spacing="1.25" fill="#3995EE">
                    <tspan x="7" y="51">|&gt;</tspan>
                </text>
            </g>
            <circle id="Oval-5" stroke="#9D8BC4" stroke-width="3" fill="#FFFFFF" fill-rule="nonzero" cx="83" cy="241.125" r="17.5"></circle>
            <polygon id="Fill-1" fill="#3995EE" points="84 240 84 234 81 234 81 240 75 240 75 243 81 243 81 249 84 249 84 243 90 243 90 240"></polygon>
            <rect id="Rectangle-7" stroke="#60A2E0" fill="#FFFFFF" fill-rule="nonzero" x="112.5" y="351.265625" width="49" height="24"></rect>
            <path d="M119.168,357.8 L122.848,357.8 C124.234674,357.8 125.247997,358.130663 125.888,358.792 C126.528003,359.453337 126.848,360.509326 126.848,361.96 L126.848,364.84 C126.848,366.290674 126.528003,367.346663 125.888,368.008 C125.247997,368.669337 124.234674,369 122.848,369 L119.168,369 L119.168,367.736 L120.128,367.736 L120.128,359.048 L119.168,359.048 L119.168,357.8 Z M122.656,367.752 C123.146669,367.752 123.570665,367.704 123.928,367.608 C124.285335,367.512 124.581332,367.349334 124.816,367.12 C125.050668,366.890666 125.223999,366.584002 125.336,366.2 C125.448001,365.815998 125.504,365.33067 125.504,364.744 L125.504,362.056 C125.504,361.46933 125.448001,360.984002 125.336,360.6 C125.223999,360.215998 125.050668,359.909334 124.816,359.68 C124.581332,359.450666 124.285335,359.288 123.928,359.192 C123.570665,359.096 123.146669,359.048 122.656,359.048 L121.472,359.048 L121.472,367.752 L122.656,367.752 Z M129.296,357.8 L136.08,357.8 L136.08,359.048 L130.64,359.048 L130.64,362.76 L135.984,362.76 L135.984,364.008 L130.64,364.008 L130.64,367.752 L136.176,367.752 L136.176,369 L129.296,369 L129.296,357.8 Z M138.016,357.8 L139.456,357.8 L142.384,368.424 L142.576,368.424 L145.504,357.8 L146.944,357.8 L143.776,369 L141.184,369 L138.016,357.8 Z M154.912,361.032 C154.912,360.669332 154.840001,360.349335 154.696,360.072 C154.551999,359.794665 154.357335,359.565334 154.112,359.384 C153.866665,359.202666 153.584002,359.064 153.264,358.968 C152.943998,358.872 152.608002,358.824 152.256,358.824 C151.946665,358.824 151.653335,358.864 151.376,358.944 C151.098665,359.024 150.850668,359.138666 150.632,359.288 C150.413332,359.437334 150.240001,359.621332 150.112,359.84 C149.983999,360.058668 149.92,360.311999 149.92,360.6 L149.92,360.696 C149.92,361.005335 149.983999,361.269332 150.112,361.488 C150.240001,361.706668 150.429332,361.893333 150.68,362.048 C150.930668,362.202667 151.242665,362.330666 151.616,362.432 C151.989335,362.533334 152.426664,362.621333 152.928,362.696 C154.101339,362.877334 154.965331,363.221331 155.52,363.728 C156.074669,364.234669 156.352,364.914662 156.352,365.768 L156.352,365.96 C156.352,366.440002 156.269334,366.879998 156.104,367.28 C155.938666,367.680002 155.693335,368.023999 155.368,368.312 C155.042665,368.600001 154.640002,368.823999 154.16,368.984 C153.679998,369.144001 153.125336,369.224 152.496,369.224 C151.78133,369.224 151.149336,369.120001 150.6,368.912 C150.050664,368.703999 149.592002,368.416002 149.224,368.048 C148.855998,367.679998 148.576001,367.248002 148.384,366.752 C148.191999,366.255998 148.096,365.71467 148.096,365.128 L148.096,364.648 L149.44,364.648 L149.44,365.032 C149.44,366.013338 149.709331,366.749331 150.248,367.24 C150.786669,367.730669 151.535995,367.976 152.496,367.976 C153.328004,367.976 153.954665,367.792002 154.376,367.424 C154.797335,367.055998 155.008,366.568003 155.008,365.96 L155.008,365.864 C155.008,365.27733 154.792002,364.829335 154.36,364.52 C153.927998,364.210665 153.226672,363.986667 152.256,363.848 C151.690664,363.773333 151.181336,363.658667 150.728,363.504 C150.274664,363.349333 149.888002,363.146668 149.568,362.896 C149.247998,362.645332 149.002668,362.344002 148.832,361.992 C148.661332,361.639998 148.576,361.224002 148.576,360.744 L148.576,360.552 C148.576,360.114664 148.666666,359.714668 148.848,359.352 C149.029334,358.989332 149.282665,358.674668 149.608,358.408 C149.933335,358.141332 150.322664,357.936001 150.776,357.792 C151.229336,357.647999 151.727997,357.576 152.272,357.576 C152.901336,357.576 153.463998,357.666666 153.96,357.848 C154.456002,358.029334 154.874665,358.271998 155.216,358.576 C155.557335,358.880002 155.815999,359.237331 155.992,359.648 C156.168001,360.058669 156.256,360.487998 156.256,360.936 L156.256,361.608 L154.912,361.608 L154.912,361.032 Z" id="DEVS" fill="#60A2E0"></path>
        </g>
    </g>
</svg>